<svg width="53" height="42" viewBox="0 0 53 42" fill="currentColor" xmlns="http://www.w3.org/2000/svg">
<path d="M1.00004 26.6949L1.00005 25.497C1.00005 25.3865 1.01426 25.2751 1.07824 25.185C1.27149 24.9129 1.91179 24.3515 3.91432 24.32C4.21336 24.3153 4.50648 24.2167 4.73642 24.0254L11.9059 18.0623C12.1258 17.8794 12.4022 17.7783 12.6881 17.7761L25.0857 17.6812C25.3563 17.6791 25.6201 17.7658 25.8368 17.9279L33.943 23.9924C34.1425 24.1417 34.3825 24.2273 34.6316 24.238L36.0702 24.2997C36.4037 24.314 36.7193 24.461 36.9149 24.7315C37.5336 25.5868 38.2389 26.8676 38.7866 26.8729C39.548 26.8802 40.5889 25.0188 40.9222 24.6187C41.2556 24.2185 43.6694 24.8816 44.0714 26.3556C44.4734 27.8296 41.8121 27.3475 41.8121 28.7712C41.8121 30.1077 43.0664 30.017 44.0714 30.017C45.0764 30.017 45.49 32.5075 43.1334 32.4527C42.147 32.4298 41.444 32.4211 40.946 32.4197C40.2944 32.4178 39.6882 31.9371 39.3888 31.3583C38.8899 30.3938 37.8222 29.1336 35.6486 29.1336C32.1274 29.1336 32.175 32.6185 31.6556 32.604C31.1362 32.5894 13.4519 32.5867 13.0499 32.5867C12.6479 32.5867 12.5869 29.0927 8.9018 29.1597C5.21675 29.2267 4.87573 32.2517 4.40674 32.3857C4.17224 32.4527 3.46574 32.3603 2.74249 32.0586C2.08663 31.785 1.43528 31.1778 1.09478 30.4925C1.02609 30.3543 1 30.1998 1.00001 30.0455L1.00001 29.9576M1.00004 26.6949H1.89604C2.5798 26.6949 3.13409 27.2492 3.13409 27.933V28.7196C3.13409 29.4033 2.5798 29.9576 1.89604 29.9576H1.00001M1.00004 26.6949L1.00001 29.9576" stroke="currentColor" stroke-width="1.18644" stroke-miterlimit="22.9256" fill="none" />
<path d="M8.69392 37.3729C10.9258 37.3729 12.7352 35.5636 12.7352 33.3316C12.7352 31.0997 10.9258 29.2904 8.69392 29.2904C6.462 29.2904 4.65266 31.0997 4.65266 33.3316C4.65266 35.5636 6.462 37.3729 8.69392 37.3729Z" stroke="currentColor" stroke-width="1.34526" stroke-miterlimit="22.9256" fill="none" />
<path d="M35.7065 37.3425C37.9384 37.3425 39.7478 35.5332 39.7478 33.3013C39.7478 31.0693 37.9384 29.26 35.7065 29.26C33.4746 29.26 31.6652 31.0693 31.6652 33.3013C31.6652 35.5332 33.4746 37.3425 35.7065 37.3425Z" stroke="currentColor" stroke-width="1.34526" stroke-miterlimit="22.9256" fill="none" />
<path d="M35.7066 35.2459C36.7806 35.2459 37.6513 34.3753 37.6513 33.3013C37.6513 32.2273 36.7806 31.3566 35.7066 31.3566C34.6326 31.3566 33.7619 32.2273 33.7619 33.3013C33.7619 34.3753 34.6326 35.2459 35.7066 35.2459Z" stroke="currentColor" stroke-width="1.34526" stroke-miterlimit="22.9256" fill="none" />
<path d="M8.69385 35.2763C9.76786 35.2763 10.6385 34.4056 10.6385 33.3316C10.6385 32.2576 9.76786 31.387 8.69385 31.387C7.61985 31.387 6.74919 32.2576 6.74919 33.3316C6.74919 34.4056 7.61985 35.2763 8.69385 35.2763Z" stroke="currentColor" stroke-width="1.34526" stroke-miterlimit="22.9256" fill="none" />
<rect x="18.5578" y="17.678" width="1.42373" height="12.339" rx="0.711865" />
<rect x="1.35449" y="23.8475" width="35.5932" height="1.30508" rx="0.652542" />
<rect x="12.151" y="25.7458" width="4.15254" height="1.30508" rx="0.652542" />
<rect x="24.846" y="25.7458" width="4.15254" height="1.30508" rx="0.652542" />
<mask id="path-10-inside-1_311_1513" fill="white">
<rect x="43.9476" width="8.42373" height="42" rx="0.59322"/>
</mask>
<rect x="43.9476" width="8.42373" height="42" rx="0.59322" stroke="currentColor" stroke-width="3.08475" mask="url(#path-10-inside-1_311_1513)" fill="none" />
<rect x="3.49008" y="36.661" width="38.9153" height="1.54237" rx="0.771187" />
<path d="M28.524 16.5331C28.524 15.9925 28.524 12.8852 28.524 10.8853C28.524 10.6571 28.8146 10.5614 28.9513 10.7441L31.6337 14.3303C31.7562 14.4941 32.0146 14.4366 32.0561 14.2363L33.7244 6.17804C33.7732 5.94236 34.1014 5.92067 34.1808 6.14787L35.8891 11.0368C35.9314 11.1578 36.0623 11.2234 36.1846 11.1848L38.877 10.3349C39.0737 10.2728 39.2505 10.4739 39.1636 10.6611L36.8963 15.5448C36.8022 15.7475 37.0149 15.956 37.2157 15.858L41.2515 13.8869C41.43 13.7997 41.6302 13.9573 41.5873 14.1513L40.8077 17.678" stroke="currentColor" stroke-width="0.949153" stroke-linecap="round" fill="none" />
</svg>
