<svg width="22" height="25" viewBox="0 0 22 25"  fill="currentColor" xmlns="http://www.w3.org/2000/svg">
<path d="M16.1989 19.0699C16.7254 19.0699 17.1729 18.8722 17.5415 18.4769C17.91 18.0816 18.0943 17.6146 18.0943 17.0761C18.0943 16.5375 17.91 16.0798 17.5415 15.7028C17.1729 15.3258 16.7254 15.1373 16.1989 15.1373C15.6724 15.1373 15.2159 15.3258 14.8294 15.7028C14.4429 16.0798 14.2497 16.5375 14.2497 17.0761C14.2497 17.6146 14.4429 18.0816 14.8294 18.4769C15.2159 18.8722 15.6724 19.0699 16.1989 19.0699ZM16.1567 22.9713C16.8382 22.9713 17.4535 22.8256 18.0028 22.5343C18.552 22.243 19.0199 21.8269 19.4064 21.2859C18.8775 20.9946 18.349 20.7761 17.8209 20.6305C17.2928 20.4848 16.7435 20.412 16.1731 20.412C15.6028 20.412 15.0481 20.4848 14.509 20.6305C13.9699 20.7761 13.4461 20.9946 12.9376 21.2859C13.3241 21.8269 13.7869 22.243 14.3259 22.5343C14.865 22.8256 15.4753 22.9713 16.1567 22.9713ZM9.76422 25C6.957 24.3342 4.62783 22.706 2.7767 20.1155C0.925566 17.525 0 14.5547 0 11.2047V3.74532L9.76422 0L19.5284 3.74532V12.1723C19.2436 12.0266 18.9385 11.8966 18.613 11.7821C18.2876 11.6677 17.9824 11.5897 17.6976 11.5481V5.05618L9.76422 2.05993L1.83079 5.05618V11.2047C1.83079 12.7861 2.07998 14.2426 2.57836 15.5743C3.07675 16.906 3.71244 18.0764 4.48544 19.0855C5.25844 20.0947 6.11281 20.9322 7.04854 21.598C7.98428 22.2638 8.88951 22.7424 9.76422 23.0337C9.88627 23.2834 10.0693 23.5643 10.3135 23.8764C10.5576 24.1885 10.761 24.4278 10.9237 24.5943C10.7406 24.6983 10.5474 24.7763 10.344 24.8283C10.1405 24.8804 9.9473 24.9376 9.76422 25ZM16.2483 25C14.6718 25 13.3241 24.4226 12.2053 23.2678C11.0865 22.113 10.527 20.7449 10.527 19.1635C10.527 17.5315 11.0864 16.1404 12.205 14.9901C13.3236 13.8398 14.6764 13.2647 16.2635 13.2647C17.8299 13.2647 19.1775 13.8398 20.3065 14.9901C21.4355 16.1404 22 17.5315 22 19.1635C22 20.7449 21.4355 22.113 20.3065 23.2678C19.1775 24.4226 17.8248 25 16.2483 25Z" />
</svg>
