<svg width="27" height="27" viewBox="0 0 27 27" fill="currentColor" xmlns="http://www.w3.org/2000/svg">
<path d="M2.625 26.125C2.125 26.125 1.6875 25.9375 1.3125 25.5625C0.9375 25.1875 0.75 24.75 0.75 24.25V5.5C0.75 5 0.9375 4.5625 1.3125 4.1875C1.6875 3.8125 2.125 3.625 2.625 3.625H15.2812L13.4062 5.5H2.625V24.25H21.375V13.375L23.25 11.5V24.25C23.25 24.75 23.0625 25.1875 22.6875 25.5625C22.3125 25.9375 21.875 26.125 21.375 26.125H2.625ZM17.6875 3.875L19.0312 5.1875L10.125 14.0625V16.75H12.7812L21.7188 7.8125L23.0312 9.125L14.125 18.0625C13.9583 18.2292 13.7552 18.3646 13.5156 18.4688C13.276 18.5729 13.0312 18.625 12.7812 18.625H9.1875C8.91667 18.625 8.69271 18.5365 8.51562 18.3594C8.33854 18.1823 8.25 17.9583 8.25 17.6875V14.0938C8.25 13.8438 8.30208 13.599 8.40625 13.3594C8.51042 13.1198 8.64583 12.9167 8.8125 12.75L17.6875 3.875ZM23.0312 9.125L17.6875 3.875L20.8125 0.75C21.1667 0.395833 21.6094 0.21875 22.1406 0.21875C22.6719 0.21875 23.1146 0.40625 23.4688 0.78125L26.0938 3.4375C26.4479 3.8125 26.625 4.25521 26.625 4.76562C26.625 5.27604 26.4375 5.70833 26.0625 6.0625L23.0312 9.125Z" />
</svg>
