<svg width="17" height="19" viewBox="0 0 17 19" fill="currentColor" xmlns="http://www.w3.org/2000/svg">
<path d="M1.41667 19C1.03889 19 0.708333 18.8575 0.425 18.5725C0.141667 18.2875 0 17.955 0 17.575V2.85C0 2.47 0.141667 2.1375 0.425 1.8525C0.708333 1.5675 1.03889 1.425 1.41667 1.425H2.95139V0.76C2.95139 0.544667 3.0238 0.364167 3.16861 0.2185C3.31343 0.0728336 3.49287 0 3.70694 0C3.92771 0 4.11276 0.0728336 4.26211 0.2185C4.41145 0.364167 4.48611 0.544667 4.48611 0.76V1.425H12.5139V0.76C12.5139 0.544667 12.5863 0.364167 12.7311 0.2185C12.8759 0.0728336 13.0554 0 13.2694 0C13.4902 0 13.6753 0.0728336 13.8246 0.2185C13.9739 0.364167 14.0486 0.544667 14.0486 0.76V1.425H15.5833C15.9611 1.425 16.2917 1.5675 16.575 1.8525C16.8583 2.1375 17 2.47 17 2.85V17.575C17 17.955 16.8583 18.2875 16.575 18.5725C16.2917 18.8575 15.9611 19 15.5833 19H1.41667ZM1.41667 5.9375H15.5833V2.85H1.41667V5.9375Z" fill="currentColor"/>
<circle cx="2.5" cy="2.5" r="2.5" transform="matrix(1 0 0 -1 3 14)" fill="white"/>
</svg>
