<svg width="24" height="24" viewBox="0 0 24 24" fill="currentColor" xmlns="http://www.w3.org/2000/svg">
<g clip-path="url(#clip0_3288_102)">
<path d="M9.17512 20.9904C7.15381 20.1981 5.49619 18.8954 4.20225 17.0823C2.9083 15.2691 2.26132 13.2042 2.26132 10.8876C2.26132 10.3394 2.30095 9.79879 2.38022 9.26594C2.45949 8.73309 2.58206 8.21163 2.74793 7.70158L0.847698 8.80624L0 7.32459L4.96073 4.45828L7.82309 9.4082L6.32589 10.2791L4.69212 7.4414C4.46019 7.97939 4.28808 8.53833 4.17578 9.11821C4.06347 9.69811 4.00732 10.2916 4.00732 10.8987C4.00732 12.8551 4.56623 14.6132 5.68406 16.1728C6.80186 17.7323 8.25545 18.8348 10.0448 19.4801L9.17512 20.9904ZM16.9872 6.85709V5.13732H20.2503C19.3798 4.04811 18.3244 3.20621 17.0841 2.61164C15.8437 2.01705 14.5307 1.71975 13.145 1.71975C12.0147 1.71975 10.9527 1.90974 9.9589 2.28972C8.96513 2.6697 8.06971 3.19999 7.27263 3.88057L6.40292 2.35923C7.33503 1.62426 8.3666 1.04731 9.49762 0.628388C10.6286 0.209462 11.8349 0 13.1163 0C14.6165 0 16.0455 0.291039 17.4033 0.873117C18.7611 1.45521 19.9582 2.29602 20.9945 3.39553V1.12444H22.7119V6.85709H16.9872ZM16.6944 24L11.7336 21.1227L14.596 16.1838L16.0756 17.0436L14.367 19.9739C16.6261 19.6638 18.5101 18.6518 20.0191 16.9378C21.5281 15.2239 22.2826 13.2108 22.2826 10.8987C22.2826 10.5929 22.2668 10.2949 22.2353 10.0046C22.2037 9.71424 22.1505 9.42945 22.0756 9.15017H23.8327C23.8884 9.42945 23.9303 9.70947 23.9582 9.99024C23.9861 10.271 24 10.5643 24 10.87C24 13.4056 23.2246 15.6542 21.6738 17.6158C20.1229 19.5774 18.1277 20.8493 15.6881 21.4313L17.5531 22.5184L16.6944 24Z" />
<path d="M13 5V11L16 14" stroke="currentColor" stroke-width="1.5" stroke-linecap="round" fill="none"/>
</g>
<defs>
<clipPath id="clip0_3288_102">
<rect width="24" height="24" fill="white"/>
</clipPath>
</defs>
</svg>
