<svg width="40" height="40" viewBox="0 0 40 40"  fill="currentColor" xmlns="http://www.w3.org/2000/svg">
<path d="M2.5 40V39.35C2.5 38.6473 2.69013 38.0032 3.0704 37.4176C3.45067 36.832 3.9772 36.3928 4.65 36.1C5.48593 35.7493 6.34598 35.4783 7.23015 35.287C8.11432 35.0956 9.03867 35 10.0032 35C10.9677 35 11.8913 35.0956 12.774 35.287C13.6568 35.4783 14.5154 35.7493 15.35 36.1C16.0228 36.3928 16.5493 36.832 16.9296 37.4176C17.3099 38.0032 17.5 38.6473 17.5 39.35V40H2.5ZM22.5 40V39.35C22.5 38.6473 22.6901 38.0032 23.0704 37.4176C23.4507 36.832 23.9772 36.3928 24.65 36.1C25.4859 35.7493 26.346 35.4783 27.2302 35.287C28.1143 35.0956 29.0387 35 30.0032 35C30.9677 35 31.8914 35.0956 32.7741 35.287C33.6568 35.4783 34.5154 35.7493 35.35 36.1C36.0228 36.3928 36.5493 36.832 36.9296 37.4176C37.3099 38.0032 37.5 38.6473 37.5 39.35V40H22.5ZM9.9978 32.25C8.96593 32.25 8.08333 31.8826 7.35 31.1478C6.61667 30.413 6.25 29.5296 6.25 28.4978C6.25 27.4659 6.6174 26.5833 7.3522 25.85C8.08703 25.1167 8.97037 24.75 10.0022 24.75C11.0341 24.75 11.9167 25.1174 12.65 25.8522C13.3833 26.587 13.75 27.4704 13.75 28.5022C13.75 29.5341 13.3826 30.4167 12.6478 31.15C11.913 31.8833 11.0296 32.25 9.9978 32.25ZM29.9978 32.25C28.9659 32.25 28.0833 31.8826 27.35 31.1478C26.6167 30.413 26.25 29.5296 26.25 28.4978C26.25 27.4659 26.6174 26.5833 27.3522 25.85C28.087 25.1167 28.9704 24.75 30.0022 24.75C31.0341 24.75 31.9167 25.1174 32.65 25.8522C33.3833 26.587 33.75 27.4704 33.75 28.5022C33.75 29.5341 33.3826 30.4167 32.6478 31.15C31.913 31.8833 31.0296 32.25 29.9978 32.25ZM20 27.65L14.35 22L16.1 20.25L18.75 22.9V18.25H21.25V22.9L23.9 20.25L25.65 22L20 27.65ZM0 15.25V14.6C0 13.8973 0.190133 13.2532 0.5704 12.6676C0.950667 12.082 1.4772 11.6428 2.15 11.35C2.98543 10.9993 3.84497 10.7283 4.7286 10.537C5.61223 10.3457 6.53603 10.25 7.5 10.25C8.33333 10.25 9.19167 10.3333 10.075 10.5C10.9583 10.6667 11.7333 10.8833 12.4 11.15C11.9333 11.6833 11.5833 12.2 11.35 12.7C11.1167 13.2 11 13.8333 11 14.6V15.25H0ZM12.5 15.25V14.6C12.5 13.8973 12.6901 13.2532 13.0704 12.6676C13.4507 12.082 13.9772 11.6428 14.65 11.35C15.4859 10.9993 16.346 10.7283 17.2302 10.537C18.1143 10.3457 19.0387 10.25 20.0032 10.25C20.9677 10.25 21.8914 10.3457 22.7741 10.537C23.6568 10.7283 24.5154 10.9993 25.35 11.35C26.0228 11.6428 26.5493 12.082 26.9296 12.6676C27.3099 13.2532 27.5 13.8973 27.5 14.6V15.25H12.5ZM29 15.25V14.6C29 13.8333 28.8917 13.2 28.675 12.7C28.4583 12.2 28.1167 11.6833 27.65 11.15C28.3167 10.8833 29.0833 10.6667 29.95 10.5C30.8167 10.3333 31.6667 10.25 32.5 10.25C33.464 10.25 34.3878 10.3457 35.2714 10.537C36.155 10.7283 37.0146 10.9993 37.85 11.35C38.5228 11.6428 39.0493 12.082 39.4296 12.6676C39.8099 13.2532 40 13.8973 40 14.6V15.25H29ZM7.4978 7.5C6.46593 7.5 5.58333 7.1326 4.85 6.3978C4.11667 5.66297 3.75 4.77963 3.75 3.7478C3.75 2.71593 4.1174 1.83333 4.8522 1.1C5.58703 0.366667 6.47037 0 7.5022 0C8.53407 0 9.41667 0.3674 10.15 1.1022C10.8833 1.83703 11.25 2.72037 11.25 3.7522C11.25 4.78407 10.8826 5.66667 10.1478 6.4C9.41297 7.13333 8.52963 7.5 7.4978 7.5ZM19.9978 7.5C18.9659 7.5 18.0833 7.1326 17.35 6.3978C16.6167 5.66297 16.25 4.77963 16.25 3.7478C16.25 2.71593 16.6174 1.83333 17.3522 1.1C18.087 0.366667 18.9704 0 20.0022 0C21.0341 0 21.9167 0.3674 22.65 1.1022C23.3833 1.83703 23.75 2.72037 23.75 3.7522C23.75 4.78407 23.3826 5.66667 22.6478 6.4C21.913 7.13333 21.0296 7.5 19.9978 7.5ZM32.4978 7.5C31.4659 7.5 30.5833 7.1326 29.85 6.3978C29.1167 5.66297 28.75 4.77963 28.75 3.7478C28.75 2.71593 29.1174 1.83333 29.8522 1.1C30.587 0.366667 31.4704 0 32.5022 0C33.5341 0 34.4167 0.3674 35.15 1.1022C35.8833 1.83703 36.25 2.72037 36.25 3.7522C36.25 4.78407 35.8826 5.66667 35.1478 6.4C34.413 7.13333 33.5296 7.5 32.4978 7.5Z" />
</svg>
