<svg width="38" height="44" viewBox="0 0 38 44" fill="currentColor" xmlns="http://www.w3.org/2000/svg">
<path d="M35 38H9C8.2 38 7.5 37.7 6.9 37.1C6.3 36.5 6 35.8 6 35V3C6 2.2 6.3 1.5 6.9 0.9C7.5 0.3 8.2 0 9 0H26.4L38 11.6V35C38 35.8 37.7 36.5 37.1 37.1C36.5 37.7 35.8 38 35 38ZM24.9 12.9V3H9V35H35V12.9H24.9ZM3 44C2.2 44 1.5 43.7 0.9 43.1C0.3 42.5 0 41.8 0 41V10.05H3V41H27.9V44H3Z" />
<path d="M15.4115 30.3106C14.6269 30.3106 13.9591 30.0391 13.408 29.496C12.8569 28.9529 12.5814 28.282 12.5814 27.4833H12.4376C12.0423 27.4833 11.7038 27.3425 11.4223 27.061C11.1408 26.7795 11 26.441 11 26.0457V16.4376C11 16.0543 11.1438 15.7188 11.4313 15.4313C11.7188 15.1438 12.0543 15 12.4376 15H24.873C25.2684 15 25.6068 15.1408 25.8883 15.4223C26.1699 15.7038 26.3106 16.0423 26.3106 16.4376V19.0014H28.4671C28.5869 19.0014 28.6947 19.0253 28.7905 19.0732C28.8864 19.1212 28.9702 19.1931 29.0421 19.2889L31.9413 23.1465C31.9892 23.2064 32.0252 23.2723 32.0491 23.3442C32.0731 23.4161 32.0851 23.4939 32.0851 23.5778V26.7645C32.0851 26.9682 32.0162 27.1389 31.8784 27.2767C31.7406 27.4144 31.5699 27.4833 31.3662 27.4833H30.3839C30.3839 28.282 30.1093 28.9529 29.5601 29.496C29.0109 30.0391 28.344 30.3106 27.5594 30.3106C26.7748 30.3106 26.107 30.0391 25.5559 29.496C25.0048 28.9529 24.7292 28.282 24.7292 27.4833H18.236C18.236 28.282 17.9614 28.9529 17.4122 29.496C16.863 30.0391 16.1961 30.3106 15.4115 30.3106ZM15.4087 28.873C15.7921 28.873 16.1195 28.7372 16.3911 28.4657C16.6626 28.1941 16.7984 27.8667 16.7984 27.4833C16.7984 27.0999 16.6626 26.7725 16.3911 26.5009C16.1195 26.2294 15.7921 26.0936 15.4087 26.0936C15.0253 26.0936 14.6979 26.2294 14.4263 26.5009C14.1548 26.7725 14.019 27.0999 14.019 27.4833C14.019 27.8667 14.1548 28.1941 14.4263 28.4657C14.6979 28.7372 15.0253 28.873 15.4087 28.873ZM12.4376 16.4376V26.0457H12.9647C13.2363 25.6144 13.5801 25.271 13.996 25.0154C14.412 24.7598 14.8752 24.632 15.3857 24.632C15.8962 24.632 16.3631 24.7638 16.7864 25.0274C17.2097 25.2909 17.5571 25.6304 17.8287 26.0457H24.873V16.4376H12.4376ZM27.5566 28.873C27.9399 28.873 28.2674 28.7372 28.5389 28.4657C28.8105 28.1941 28.9463 27.8667 28.9463 27.4833C28.9463 27.0999 28.8105 26.7725 28.5389 26.5009C28.2674 26.2294 27.9399 26.0936 27.5566 26.0936C27.1732 26.0936 26.8457 26.2294 26.5742 26.5009C26.3026 26.7725 26.1669 27.0999 26.1669 27.4833C26.1669 27.8667 26.3026 28.1941 26.5742 28.4657C26.8457 28.7372 27.1732 28.873 27.5566 28.873ZM26.3106 23.9851H30.7672L28.1076 20.439H26.3106V23.9851Z" />
</svg>
