<svg width="41" height="44" viewBox="0 0 41 44"  fill="currentColor" xmlns="http://www.w3.org/2000/svg">
<path d="M3.6 44V41H37.2V44H3.6ZM3.6 3V0H37.2V3H3.6ZM20.4 23.8C22.0667 23.8 23.4667 23.2333 24.6 22.1C25.7333 20.9667 26.3 19.5667 26.3 17.9C26.3 16.2333 25.7333 14.8333 24.6 13.7C23.4667 12.5667 22.0667 12 20.4 12C18.7333 12 17.3333 12.5667 16.2 13.7C15.0667 14.8333 14.5 16.2333 14.5 17.9C14.5 19.5667 15.0667 20.9667 16.2 22.1C17.3333 23.2333 18.7333 23.8 20.4 23.8ZM3 38C2.2 38 1.5 37.7 0.9 37.1C0.3 36.5 0 35.8 0 35V9C0 8.13333 0.3 7.41667 0.9 6.85C1.5 6.28333 2.2 6 3 6H37.8C38.6 6 39.3 6.3 39.9 6.9C40.5 7.5 40.8 8.2 40.8 9V35C40.8 35.8 40.5 36.5 39.9 37.1C39.3 37.7 38.6 38 37.8 38H3ZM7.4 35C9.1 32.9 11.1167 31.325 13.45 30.275C15.7833 29.225 18.0917 28.7 20.375 28.7C22.6583 28.7 24.9917 29.225 27.375 30.275C29.7583 31.325 31.7667 32.9 33.4 35H37.8V9H3V35H7.4ZM12.1 35H28.8C27.7667 34 26.5583 33.2 25.175 32.6C23.7917 32 22.2 31.7 20.4 31.7C18.6 31.7 17.025 32 15.675 32.6C14.325 33.2 13.1333 34 12.1 35ZM20.4079 20.8C19.6026 20.8 18.925 20.5167 18.375 19.95C17.825 19.3833 17.55 18.7 17.55 17.9C17.55 17.1 17.8224 16.4167 18.3671 15.85C18.9118 15.2833 19.5868 15 20.3921 15C21.1974 15 21.875 15.2833 22.425 15.85C22.975 16.4167 23.25 17.1 23.25 17.9C23.25 18.7 22.9776 19.3833 22.4329 19.95C21.8882 20.5167 21.2132 20.8 20.4079 20.8Z" />
</svg>
