<svg width="17" height="25" viewBox="0 0 17 25"  fill="currentColor" xmlns="http://www.w3.org/2000/svg">
<path d="M8.5 25C6.29167 25 4.48958 24.6771 3.09375 24.0312C1.69792 23.3854 1 22.5625 1 21.5625C1 21 1.25521 20.4688 1.76562 19.9688C2.27604 19.4688 2.97917 19.0625 3.875 18.75L4.4375 20.5625C4.10417 20.6667 3.79688 20.8125 3.51562 21C3.23438 21.1875 3.01042 21.375 2.84375 21.5625C3.19792 21.9792 3.93229 22.3438 5.04688 22.6562C6.16146 22.9688 7.3125 23.125 8.5 23.125C9.6875 23.125 10.8438 22.9688 11.9688 22.6562C13.0938 22.3438 13.8333 21.9792 14.1875 21.5625C14.0208 21.3958 13.8021 21.2188 13.5312 21.0312C13.2604 20.8438 12.9479 20.6875 12.5938 20.5625L13.125 18.75C14.0208 19.0625 14.724 19.4688 15.2344 19.9688C15.7448 20.4688 16 21 16 21.5625C16 22.5625 15.3021 23.3854 13.9062 24.0312C12.5104 24.6771 10.7083 25 8.5 25ZM8.5 18.2812C8.93965 17.4688 9.40373 16.724 9.89225 16.0469C10.3807 15.3698 10.8646 14.7292 11.3438 14.125C12.2604 12.9375 12.9844 11.9167 13.5156 11.0625C14.0469 10.2083 14.3125 9.08256 14.3125 7.68519C14.3125 6.06715 13.7478 4.69427 12.6183 3.56656C11.4888 2.43885 10.1138 1.875 8.49331 1.875C6.87277 1.875 5.5 2.43885 4.375 3.56656C3.25 4.69427 2.6875 6.06715 2.6875 7.68519C2.6875 9.08256 2.95312 10.2083 3.48438 11.0625C4.01562 11.9167 4.73958 12.9375 5.65625 14.125C6.13542 14.7292 6.61925 15.3698 7.10775 16.0469C7.59627 16.724 8.06035 17.4688 8.5 18.2812ZM8.5 21.6875C8.25 21.6875 8.03125 21.617 7.84375 21.4759C7.65625 21.3348 7.52083 21.145 7.4375 20.9062C6.9375 19.3854 6.3123 18.125 5.56191 17.125C4.81149 16.125 4.08252 15.1667 3.375 14.25C2.66667 13.3333 2.0625 12.3802 1.5625 11.3906C1.0625 10.401 0.8125 9.16624 0.8125 7.68622C0.8125 5.54124 1.55541 3.72396 3.04122 2.23438C4.52705 0.744792 6.34665 0 8.5 0C10.6534 0 12.4729 0.742906 13.9588 2.22872C15.4446 3.71455 16.1875 5.53415 16.1875 7.6875C16.1875 9.16667 15.9388 10.3994 15.4415 11.3857C14.9441 12.3719 14.3386 13.3267 13.625 14.25C12.9167 15.1667 12.1875 16.125 11.4375 17.125C10.6875 18.125 10.064 19.3826 9.56713 20.8979C9.48071 21.1326 9.34375 21.3229 9.15625 21.4688C8.96875 21.6146 8.75 21.6875 8.5 21.6875ZM8.5065 9.5625C9.023 9.5625 9.46354 9.37804 9.82812 9.00912C10.1927 8.64019 10.375 8.19748 10.375 7.681C10.375 7.1645 10.1905 6.72396 9.82162 6.35938C9.45269 5.99479 9.00998 5.8125 8.4935 5.8125C7.977 5.8125 7.53646 5.99696 7.17188 6.36588C6.80729 6.73481 6.625 7.17752 6.625 7.694C6.625 8.2105 6.80946 8.65104 7.17838 9.01562C7.54731 9.38021 7.99002 9.5625 8.5065 9.5625Z" />
</svg>
