<svg width="24" height="24" viewBox="0 0 24 24" fill="currentColor" xmlns="http://www.w3.org/2000/svg">
<path d="M7.25 8.82505H2.75C2.5375 8.82505 2.35938 8.75276 2.21563 8.60817C2.07187 8.46357 2 8.28441 2 8.07067C2 7.85692 2.07187 7.67922 2.21563 7.53755C2.35938 7.39588 2.5375 7.32505 2.75 7.32505H7.25V3.85005L5.775 5.32505C5.625 5.47505 5.45 5.55005 5.25 5.55005C5.05 5.55005 4.87174 5.47505 4.71522 5.32505C4.57174 5.17505 4.5 5.00005 4.5 4.80005C4.5 4.60005 4.575 4.42505 4.725 4.27505L7.475 1.52505C7.625 1.37505 7.8 1.30005 8 1.30005C8.2 1.30005 8.375 1.37505 8.525 1.52505L11.275 4.27505C11.425 4.42505 11.5 4.60005 11.5 4.80005C11.5 5.00005 11.4283 5.17505 11.2848 5.32505C11.1283 5.47505 10.95 5.55005 10.75 5.55005C10.55 5.55005 10.375 5.47505 10.225 5.32505L8.75 3.85005V15.175H21.25C21.4625 15.175 21.6406 15.2473 21.7844 15.3919C21.9281 15.5365 22 15.7157 22 15.9294C22 16.1432 21.9281 16.3209 21.7844 16.4625C21.6406 16.6042 21.4625 16.675 21.25 16.675H16.75V20.15L18.225 18.675C18.375 18.525 18.55 18.45 18.75 18.45C18.95 18.45 19.1283 18.525 19.2848 18.675C19.4283 18.825 19.5 19 19.5 19.2C19.5 19.4 19.425 19.575 19.275 19.725L16.525 22.475C16.375 22.625 16.2 22.7 16 22.7C15.8 22.7 15.625 22.625 15.475 22.475L12.725 19.725C12.575 19.575 12.5 19.4 12.5 19.2C12.5 19 12.5717 18.825 12.7152 18.675C12.8717 18.525 13.05 18.45 13.25 18.45C13.45 18.45 13.625 18.525 13.775 18.675L15.25 20.15V16.675H8.75C8.31667 16.675 7.95833 16.5334 7.675 16.25C7.39167 15.9667 7.25 15.6084 7.25 15.175V8.82505ZM15.25 13.675V8.82505H10.25V7.32505H15.25C15.6833 7.32505 16.0417 7.46672 16.325 7.75005C16.6083 8.03338 16.75 8.39172 16.75 8.82505V13.675H15.25Z" />
</svg>
