<svg width="39" height="41" viewBox="0 0 39 41" fill="currentColor" xmlns="http://www.w3.org/2000/svg">
<path d="M12.8312 29.2313H6.42676V39.1583H12.8312V29.2313Z" stroke="currentColor" stroke-width="1.70787" fill="none"/>
<path d="M24.5727 26.883H18.1682V39.1583H24.5727V26.883Z" stroke="currentColor" stroke-width="1.70787"  fill="none"/>
<path d="M36.3146 15.6751H29.9101V39.1582H36.3146V15.6751Z" stroke="currentColor" stroke-width="1.70787"  fill="none"/>
<mask id="path-4-inside-1_2407_963" fill="white">
<path d="M6.20999 21.0855C6.00692 21.2054 5.93948 21.4672 6.05935 21.6702C6.17923 21.8733 6.44102 21.9407 6.64409 21.8209L6.20999 21.0855ZM23.3854 11.7928C23.4442 11.5645 23.3068 11.3317 23.0785 11.2729L19.3573 10.3143C19.1289 10.2554 18.8961 10.3929 18.8373 10.6212C18.7784 10.8496 18.9159 11.0824 19.1442 11.1412L22.452 11.9933L21.5999 15.301C21.541 15.5294 21.6785 15.7622 21.9068 15.821C22.1352 15.8798 22.368 15.7424 22.4268 15.514L23.3854 11.7928ZM6.64409 21.8209L23.189 12.054L22.7549 11.3186L6.20999 21.0855L6.64409 21.8209Z"/>
</mask>
<path d="M7.07467 21.5668L6.64057 20.8313L5.77941 21.3397L6.21351 22.0751L7.07467 21.5668ZM6.20999 21.0855L5.70163 20.2244L5.70156 20.2244L6.20999 21.0855ZM6.05935 21.6702L6.92052 21.1619L6.92043 21.1618L6.05935 21.6702ZM6.64409 21.8209L7.1522 22.6822L7.15245 22.6821L6.64409 21.8209ZM23.3854 11.7928L24.3538 12.0423L24.3538 12.0422L23.3854 11.7928ZM23.0785 11.2729L22.8291 12.2413L22.8291 12.2413L23.0785 11.2729ZM19.3573 10.3143L19.1076 11.2826L19.1079 11.2827L19.3573 10.3143ZM18.8373 10.6212L19.8056 10.8709L19.8057 10.8706L18.8373 10.6212ZM19.1442 11.1412L19.3937 10.1728L19.3936 10.1728L19.1442 11.1412ZM22.452 11.9933L23.4204 12.2428L23.6699 11.2744L22.7015 11.0249L22.452 11.9933ZM21.5999 15.301L22.5682 15.5507L22.5683 15.5505L21.5999 15.301ZM21.9068 15.821L21.6574 16.7894L21.6575 16.7894L21.9068 15.821ZM22.4268 15.514L21.4584 15.2646L21.4584 15.2647L22.4268 15.514ZM23.189 12.054L23.6974 12.9152L24.5585 12.4068L24.0502 11.5457L23.189 12.054ZM22.7549 11.3186L23.6161 10.8103L23.1077 9.9491L22.2466 10.4575L22.7549 11.3186ZM5.70156 20.2244C5.0231 20.625 4.79745 21.4999 5.19827 22.1787L6.92043 21.1618C7.08151 21.4345 6.99074 21.7858 6.71842 21.9466L5.70156 20.2244ZM5.19818 22.1785C5.59887 22.8574 6.47375 23.0825 7.1522 22.6822L6.13598 20.9596C6.40829 20.799 6.75959 20.8893 6.92052 21.1619L5.19818 22.1785ZM24.3538 12.0422C24.5503 11.2793 24.0912 10.5011 23.3279 10.3045L22.8291 12.2413C22.5224 12.1623 22.3381 11.8498 22.417 11.5434L24.3538 12.0422ZM23.328 10.3045L19.6068 9.34593L19.1079 11.2827L22.8291 12.2413L23.328 10.3045ZM19.607 9.346C18.8435 9.1491 18.0655 9.60876 17.8689 10.3718L19.8057 10.8706C19.7268 11.1771 19.4143 11.3617 19.1076 11.2826L19.607 9.346ZM17.869 10.3715C17.6721 11.135 18.1318 11.9131 18.8948 12.1096L19.3936 10.1728C19.7001 10.2517 19.8847 10.5642 19.8056 10.8709L17.869 10.3715ZM18.8948 12.1096L22.2026 12.9617L22.7015 11.0249L19.3937 10.1728L18.8948 12.1096ZM21.4836 11.7439L20.6315 15.0516L22.5683 15.5505L23.4204 12.2428L21.4836 11.7439ZM20.6316 15.0513C20.4347 15.8148 20.8944 16.5929 21.6574 16.7894L22.1562 14.8526C22.4627 14.9315 22.6473 15.244 22.5682 15.5507L20.6316 15.0513ZM21.6575 16.7894C22.4205 16.9859 23.1987 16.5268 23.3953 15.7633L21.4584 15.2647C21.5374 14.958 21.85 14.7738 22.1561 14.8526L21.6575 16.7894ZM23.3952 15.7635L24.3538 12.0423L22.417 11.5434L21.4584 15.2646L23.3952 15.7635ZM7.15245 22.6821L23.6974 12.9152L22.6807 11.1929L6.13573 20.9598L7.15245 22.6821ZM24.0502 11.5457L23.6161 10.8103L21.8938 11.827L22.3279 12.5624L24.0502 11.5457ZM22.2466 10.4575L5.70163 20.2244L6.71835 21.9467L23.2633 12.1798L22.2466 10.4575Z" mask="url(#path-4-inside-1_2407_963)"/>
<path d="M32.6961 2L33.7323 5.05166L33.8184 5.30514H34.0861H37.3923L34.7319 7.15471L34.501 7.31526L34.5914 7.58158L35.6164 10.6003L32.9094 8.71829L32.6961 8.57002L32.4829 8.71829L29.7759 10.6003L30.8009 7.58158L30.8913 7.31526L30.6604 7.15471L28 5.30514H31.3062H31.5739L31.6599 5.05166L32.6961 2Z" stroke="currentColor" stroke-width="0.747191" fill="none"/>
<rect y="1" width="2" height="39" />
<path d="M0 40L-8.74228e-08 38L39 38L39 40L0 40Z" />
</svg>
