<svg width="40" height="40" viewBox="0 0 40 40"  fill="currentColor" xmlns="http://www.w3.org/2000/svg">
<path d="M9 34C8.2 34 7.5 33.7 6.9 33.1C6.3 32.5 6 31.8 6 31V3C6 2.2 6.3 1.5 6.9 0.9C7.5 0.3 8.2 0 9 0H37C37.8 0 38.5 0.3 39.1 0.9C39.7 1.5 40 2.2 40 3V31C40 31.8 39.7 32.5 39.1 33.1C38.5 33.7 37.8 34 37 34H9ZM9 31H37V3H9V31ZM3 40C2.2 40 1.5 39.7 0.9 39.1C0.3 38.5 0 37.8 0 37V6H3V37H34V40H3Z" />
<path d="M30.3253 25L24.5667 19.4299L25.8745 18.165L31.6329 23.7351L30.3253 25ZM16.996 25L15.6882 23.7351L22.3414 17.2996L19.8866 14.925L19.359 15.4354L18.3495 14.4591V16.3454L17.7989 16.8779L15 14.1706L15.5506 13.638H17.5236L16.4224 12.5728L19.4277 9.66572C19.6877 9.41428 19.9707 9.24406 20.2766 9.15532C20.5825 9.06658 20.919 9.02215 21.2861 9.02215C21.6531 9.02215 21.9896 9.08505 22.2955 9.21083C22.6015 9.33662 22.8844 9.52517 23.1444 9.77674L20.6896 12.1511L21.7909 13.2164L21.2402 13.7489L23.6261 16.0569L26.4251 13.3495C26.3028 13.1572 26.2071 12.9353 26.1384 12.6838C26.0695 12.4322 26.0351 12.166 26.0351 11.8849C26.0351 11.1008 26.3295 10.424 26.9184 9.8544C27.5072 9.2848 28.2069 9 29.0175 9C29.247 9 29.442 9.02215 29.6026 9.06658C29.7631 9.11102 29.897 9.17009 30.004 9.24406L28.054 11.1303L29.7746 12.7947L31.7248 10.9084C31.8011 11.0268 31.8661 11.1711 31.9198 11.3412C31.9732 11.5114 32 11.7073 32 11.9292C32 12.7134 31.7056 13.3902 31.1168 13.9598C30.5279 14.5294 29.8281 14.8142 29.0175 14.8142C28.7422 14.8142 28.5051 14.7957 28.3064 14.7586C28.1075 14.7217 27.924 14.6662 27.7558 14.5922L16.996 25Z" />
</svg>
