<svg width="30" height="30" viewBox="0 0 30 30" fill="currentColor" xmlns="http://www.w3.org/2000/svg">
<g clip-path="url(#clip0_1939_3529)">
<path fill-rule="evenodd" clip-rule="evenodd" d="M20.1276 6.52322C20.1276 9.06224 17.9349 11.1206 15.2302 11.1206C12.5255 11.1206 10.3329 9.06224 10.3329 6.52322C10.3329 3.98419 12.5255 1.9259 15.2302 1.9259C17.9349 1.9259 20.1276 3.98419 20.1276 6.52322ZM11.0248 11.7166C11.8898 12.3349 12.914 12.767 14.0294 12.9493C14.1021 12.9719 14.1709 12.9928 14.2356 13.0121C14.3124 13.035 14.3834 13.0557 14.4479 13.0742V25.0505C14.4151 25.0117 14.3818 24.9734 14.3478 24.9353C13.7772 24.2982 12.9519 23.6905 11.9019 23.6905H11.8924H11.8827H11.873H11.863H11.853H11.8429H11.8327H11.8223H11.8119H11.8013H11.7906H11.7798H11.7689H11.7579H11.7467H11.7356H11.7242H11.7127H11.7013H11.6895H11.6777H11.6659H11.6539H11.6418H11.6297H11.6173H11.605H11.5925H11.5799H11.5671H11.5543H11.5414H11.5283H11.5153H11.5021H11.4887H11.4753H11.4618H11.4482H11.4345H11.4206H11.4067H11.3926H11.3785H11.3644H11.35H11.3357H11.3211H11.3065H11.2918H11.277H11.2621H11.2471H11.2321H11.2168H11.2016H11.1863H11.1708H11.1552H11.1397H11.1239H11.1081H11.0922H11.0762H11.0601H11.0439H11.0277H11.0112H10.9948H10.9783H10.9617H10.945H10.9282H10.9113H10.8943H10.8773H10.8601H10.8429H10.8256H10.8082H10.7907H10.7732H10.7555H10.7377H10.72H10.7021H10.6841H10.6661H10.648H10.6298H10.6114H10.593H10.5745H10.556H10.5374H10.5188H10.5H10.4811H10.4622H10.4432H10.4241H10.405H10.3857H10.3664H10.347H10.3276H10.308H10.2885H10.2688H10.249H10.2292H10.2093H10.1893H10.1693H10.1492H10.129H10.1088H10.0884H10.0681H10.0476H10.0271H10.0065H9.98583H9.9651H9.9443H9.92344H9.9025H9.8815H9.86045H9.83931H9.81812H9.79687H9.77555H9.75416H9.73271H9.7112H9.68963H9.66799H9.64629H9.62453H9.60271H9.58082H9.55888H9.53689H9.51483H9.4927H9.47051H9.44828H9.42598H9.40363H9.38122H9.35875H9.33622H9.31364H9.29101H9.26831H9.24556H9.22276H9.1999H9.17699H9.15402H9.13101H9.10795H9.08481H9.06165H9.03841H9.01514H8.99181H8.96843H8.945H8.92153H8.898H8.87442H8.85079H8.82712H8.8034H8.77963H8.75581H8.73195H8.70803H8.68408H8.66008H8.63604H8.61195H8.58781H8.56363H8.53941H8.51514H8.49083H8.46648H8.44209H8.41765H8.39317H8.36866H8.34409H8.3195H8.29486H8.27018H8.24547H8.22071H8.19591H8.17109H8.14621H8.12131H8.09637H8.07138H8.04637H8.02132H7.99623H7.97111H7.94596H7.92076H7.89554H7.87028H7.84499H7.81967H7.79431H7.76892H7.74351H7.71805H7.69257H7.66706H7.64152H7.61595H7.59036H7.56473H7.53907H7.51338H7.48768H7.46193H7.43617H7.41037H7.38456H7.35871H7.33284H7.30694H7.28102H7.25508H7.22911H7.20312H7.1771H7.15107H7.12501H7.09893H7.07282H7.0467H7.02055H6.99438H6.9682H6.94199H6.91577H6.88953H6.86326H6.83698H6.81068H6.78437H6.75803H6.73169H6.70532H6.67894H6.65254H6.62613H6.5997H6.57327H6.54681H6.52035H6.49386H6.46737H6.44086H6.41433H6.38781H6.36127H6.33471H6.30816H6.28158H6.25499H6.2284H6.2018H6.17519H6.14857H6.12195H6.09531H6.06867H6.04201H6.01537H5.9887H5.96204H5.93537H5.9087H5.88201H5.85533H5.82864H5.80194H5.77525H5.74856H5.72186H5.69516H5.66846H5.64175H5.61505H5.58834H5.56164H5.53494H5.50823H5.48153H5.45483H5.42813H5.40143H5.37475H5.34806H5.32137H5.29469H5.26801H5.24134H5.21467H5.18801H5.16135H5.1347H5.10805H5.08142H5.05479H5.02816H5.00155H4.97495H4.94835H4.92176H4.89519H4.86862H4.84207H4.81552H4.78898H4.76245H4.73594H4.70944H4.68296H4.65649H4.63003H4.60358H4.57715H4.55073H4.52432H4.49794H4.47157H4.44521H4.41888H4.39255H4.36624H4.33996H4.31369H4.28743H4.2612H4.23499H4.20879H4.18262H4.15647H4.13034H4.10423H4.07814H4.05207H4.02602H3.99999H3.974H3.94802H3.92206H3.89613H3.87023H3.84435H3.8185H3.79266H3.76686H3.74108H3.71533H3.68961H3.66391H3.63824H3.6126H3.587H3.56141H3.53586H3.51034H3.48485H3.45938H3.43396H3.40855H3.38318H3.35784H3.33255H3.30727H3.28204H3.25683H3.23166H3.20653H3.18143H3.15636H3.13133H3.10633H3.08138H3.05646H3.03157H3.00672H2.98191H2.95715H2.93241H2.90772H2.88307H2.85845H2.83388H2.80934H2.78485H2.7604H2.73599H2.71162H2.6873H2.66301H2.63877H2.61457H2.59043H2.56631H2.54225H2.51823H2.49426H2.47033H2.44645H2.42261H2.39883H2.37509H2.35139H2.32775H2.30415H2.2806H2.25711H2.23365H2.21025H2.1869H2.16361H2.14036H2.11717H2.09403H2.07093H2.0479H2.02491H2.00197H1.97909H1.95627H1.9335H1.91079H1.88813H1.86553H1.84298H1.82049H1.79805H1.77567H1.75335H1.73109H1.70889H1.68674H1.66466H1.64263H1.62067H1.59876H1.57692H1.55513H1.53341H1.51175H1.49015H1.46861H1.44713H1.42572H1.40438H1.3831H1.36188H1.34072H1.31963H1.29861H1.27766H1.25677H1.23595H1.21519H1.19449H1.17388H1.15332H1.13284H1.11242H1.10418V5.701H8.1299C8.11163 6.17756 8.11289 6.9063 8.22278 7.68143C8.35805 8.63559 8.66983 9.7526 9.40473 10.5283C9.83736 10.9849 10.4146 11.3811 11.0248 11.7166ZM21.893 4.66445C21.0404 1.96733 18.3801 0 15.2302 0C12.0779 0 9.41584 1.97049 8.56551 4.67094C8.53112 4.66667 8.49594 4.66445 8.4601 4.66445H0.783716C0.350886 4.66445 0 4.99384 0 5.40016V24.2088V26.8453V29.2643C0 29.6706 0.350882 30 0.783716 30H15H29.2163C29.6491 30 30 29.6706 30 29.2643V26.8453V24.2088V5.40016C30 4.99385 29.6491 4.66445 29.2163 4.66445H21.893ZM15.8164 13.0236C19.3799 12.7441 22.1792 9.94056 22.1792 6.52322C22.1792 6.24473 22.1605 5.9703 22.1245 5.701H28.8958V23.684C25.7425 23.6489 19.8943 23.6084 17.9571 23.6911C16.8865 23.7367 16.0999 24.1923 15.5521 24.7628V13.0911C15.602 13.0788 15.6556 13.0653 15.7124 13.0506C15.746 13.042 15.7807 13.033 15.8164 13.0236ZM15.4586 3.10964C15.2027 3.10964 14.9954 3.30434 14.9954 3.54452V4.30556C14.9954 4.54574 15.2027 4.74044 15.4586 4.74044C15.7144 4.74044 15.9218 4.54574 15.9218 4.30556V3.54452C15.9218 3.30434 15.7144 3.10964 15.4586 3.10964ZM18.0072 24.7265C19.9098 24.6453 25.7371 24.6853 28.8958 24.7207V26.327H20.0669C19.7619 26.327 19.5148 26.559 19.5148 26.8453C19.5148 27.1315 19.7619 27.3635 20.0669 27.3635H28.8958V28.9635H15.5521V27.0762C15.6201 26.6923 15.8262 26.1147 16.2202 25.629C16.6161 25.1411 17.1851 24.7616 18.0072 24.7265ZM14.4479 27.1278V28.9635H1.10418V27.3635H9.81726C10.1222 27.3635 10.3694 27.1315 10.3694 26.8453C10.3694 26.559 10.1222 26.327 9.81726 26.327H1.10418V24.7271H1.11242H1.13284H1.15332H1.17388H1.19449H1.21519H1.23595H1.25677H1.27766H1.29861H1.31963H1.34072H1.36188H1.3831H1.40438H1.42572H1.44713H1.46861H1.49015H1.51175H1.53341H1.55513H1.57692H1.59876H1.62067H1.64263H1.66466H1.68674H1.70889H1.73109H1.75335H1.77567H1.79805H1.82049H1.84298H1.86553H1.88813H1.91079H1.9335H1.95627H1.97909H2.00197H2.02491H2.0479H2.07093H2.09403H2.11717H2.14036H2.16361H2.1869H2.21025H2.23365H2.25711H2.2806H2.30415H2.32775H2.35139H2.37509H2.39883H2.42261H2.44645H2.47033H2.49426H2.51823H2.54225H2.56631H2.59043H2.61457H2.63877H2.66301H2.6873H2.71162H2.73599H2.7604H2.78485H2.80934H2.83388H2.85845H2.88307H2.90772H2.93241H2.95715H2.98191H3.00672H3.03157H3.05646H3.08138H3.10633H3.13133H3.15636H3.18143H3.20653H3.23166H3.25683H3.28204H3.30727H3.33255H3.35784H3.38318H3.40855H3.43396H3.45938H3.48485H3.51034H3.53586H3.56141H3.587H3.6126H3.63824H3.66391H3.68961H3.71533H3.74108H3.76686H3.79266H3.8185H3.84435H3.87023H3.89613H3.92206H3.94802H3.974H3.99999H4.02602H4.05207H4.07814H4.10423H4.13034H4.15647H4.18262H4.20879H4.23499H4.2612H4.28743H4.31369H4.33996H4.36624H4.39255H4.41888H4.44521H4.47157H4.49794H4.52432H4.55073H4.57715H4.60358H4.63003H4.65649H4.68296H4.70944H4.73594H4.76245H4.78898H4.81552H4.84207H4.86862H4.89519H4.92176H4.94835H4.97495H5.00155H5.02816H5.05479H5.08142H5.10805H5.1347H5.16135H5.18801H5.21467H5.24134H5.26801H5.29469H5.32137H5.34806H5.37475H5.40143H5.42813H5.45483H5.48153H5.50823H5.53494H5.56164H5.58834H5.61505H5.64175H5.66846H5.69516H5.72186H5.74856H5.77525H5.80194H5.82864H5.85533H5.88201H5.9087H5.93537H5.96204H5.9887H6.01537H6.04201H6.06867H6.09531H6.12195H6.14857H6.17519H6.2018H6.2284H6.25499H6.28158H6.30816H6.33471H6.36127H6.38781H6.41433H6.44086H6.46737H6.49386H6.52035H6.54681H6.57327H6.5997H6.62613H6.65254H6.67894H6.70532H6.73169H6.75803H6.78437H6.81068H6.83698H6.86326H6.88953H6.91577H6.94199H6.9682H6.99438H7.02055H7.0467H7.07282H7.09893H7.12501H7.15107H7.1771H7.20312H7.22911H7.25508H7.28102H7.30694H7.33284H7.35871H7.38456H7.41037H7.43617H7.46193H7.48768H7.51338H7.53907H7.56473H7.59036H7.61595H7.64152H7.66706H7.69257H7.71805H7.74351H7.76892H7.79431H7.81967H7.84499H7.87028H7.89554H7.92076H7.94596H7.97111H7.99623H8.02132H8.04637H8.07138H8.09637H8.12131H8.14621H8.17109H8.19591H8.22071H8.24547H8.27018H8.29486H8.3195H8.34409H8.36866H8.39317H8.41765H8.44209H8.46648H8.49083H8.51514H8.53941H8.56363H8.58781H8.61195H8.63604H8.66008H8.68408H8.70803H8.73195H8.75581H8.77963H8.8034H8.82712H8.85079H8.87442H8.898H8.92153H8.945H8.96843H8.99181H9.01514H9.03841H9.06165H9.08481H9.10795H9.13101H9.15402H9.17699H9.1999H9.22276H9.24556H9.26831H9.29101H9.31364H9.33622H9.35875H9.38122H9.40363H9.42598H9.44828H9.47051H9.4927H9.51483H9.53689H9.55888H9.58082H9.60271H9.62453H9.64629H9.66799H9.68963H9.7112H9.73271H9.75416H9.77555H9.79687H9.81812H9.83931H9.86045H9.8815H9.9025H9.92344H9.9443H9.9651H9.98583H10.0065H10.0271H10.0476H10.0681H10.0884H10.1088H10.129H10.1492H10.1693H10.1893H10.2093H10.2292H10.249H10.2688H10.2885H10.308H10.3276H10.347H10.3664H10.3857H10.405H10.4241H10.4432H10.4622H10.4811H10.5H10.5188H10.5374H10.556H10.5745H10.593H10.6114H10.6298H10.648H10.6661H10.6841H10.7021H10.72H10.7377H10.7555H10.7732H10.7907H10.8082H10.8256H10.8429H10.8601H10.8773H10.8943H10.9113H10.9282H10.945H10.9617H10.9783H10.9948H11.0112H11.0277H11.0439H11.0601H11.0762H11.0922H11.1081H11.1239H11.1397H11.1552H11.1708H11.1863H11.2016H11.2168H11.2321H11.2471H11.2621H11.277H11.2918H11.3065H11.3211H11.3357H11.35H11.3644H11.3785H11.3926H11.4067H11.4206H11.4345H11.4482H11.4618H11.4753H11.4887H11.5021H11.5153H11.5283H11.5414H11.5543H11.5671H11.5799H11.5925H11.605H11.6173H11.6297H11.6418H11.6539H11.6659H11.6777H11.6895H11.7013H11.7127H11.7242H11.7356H11.7467H11.7579H11.7689H11.7798H11.7906H11.8013H11.8119H11.8223H11.8327H11.8429H11.853H11.863H11.873H11.8827H11.8924H11.9019C12.4734 24.7271 13.0184 25.0617 13.5024 25.6022C13.9491 26.1012 14.2759 26.7035 14.4479 27.1278ZM14.9065 6.29526C14.9065 6.00903 15.1537 5.77699 15.4586 5.77699C15.7634 5.77699 16.0107 6.00903 16.0107 6.29526V9.40489C16.0107 9.69113 15.7634 9.92317 15.4586 9.92317C15.1537 9.92317 14.9065 9.69113 14.9065 9.40489V6.29526ZM4.73363 13.4751C4.16711 13.4751 3.70785 13.9062 3.70785 14.438C3.70785 14.9699 4.16711 15.401 4.73363 15.401H9.86258C10.4291 15.401 10.8884 14.9699 10.8884 14.438C10.8884 13.9062 10.4291 13.4751 9.86258 13.4751H4.73363ZM18.6176 14.438C18.6176 13.9062 19.0769 13.4751 19.6434 13.4751H24.7724C25.3389 13.4751 25.7981 13.9062 25.7981 14.438C25.7981 14.9699 25.3389 15.401 24.7724 15.401H19.6434C19.0769 15.401 18.6176 14.9699 18.6176 14.438ZM2.68206 16.4375C2.11554 16.4375 1.65628 16.8686 1.65628 17.4005C1.65628 17.9323 2.11554 18.3634 2.68206 18.3634H9.86258C10.4291 18.3634 10.8884 17.9323 10.8884 17.4005C10.8884 16.8686 10.4291 16.4375 9.86258 16.4375H2.68206ZM18.6176 17.4005C18.6176 16.8686 19.0769 16.4375 19.6434 16.4375H26.8239C27.3905 16.4375 27.8497 16.8686 27.8497 17.4005C27.8497 17.9323 27.3905 18.3634 26.8239 18.3634H19.6434C19.0769 18.3634 18.6176 17.9323 18.6176 17.4005ZM2.68206 19.4C2.11554 19.4 1.65628 19.8311 1.65628 20.3629C1.65628 20.8948 2.11554 21.3259 2.68206 21.3259H9.86258C10.4291 21.3259 10.8884 20.8948 10.8884 20.3629C10.8884 19.8311 10.4291 19.4 9.86258 19.4H2.68206ZM18.6176 20.3629C18.6176 19.8311 19.0769 19.4 19.6434 19.4H26.8239C27.3905 19.4 27.8497 19.8311 27.8497 20.3629C27.8497 20.8948 27.3905 21.3259 26.8239 21.3259H19.6434C19.0769 21.3259 18.6176 20.8948 18.6176 20.3629Z" />
</g>
<defs>
<clipPath id="clip0_1939_3529">
<rect width="30" height="30" />
</clipPath>
</defs>
</svg>
