<svg width="30" height="30" viewBox="0 0 30 30" fill="currentColor" xmlns="http://www.w3.org/2000/svg">
<g clip-path="url(#clip0_2448_12)">
<path d="M25.4868 25.4999H8.03947C7.50263 25.4999 7.03289 25.2986 6.63026 24.896C6.22763 24.4934 6.02632 24.0236 6.02632 23.4868V2.0131C6.02632 1.47625 6.22763 1.00652 6.63026 0.603886C7.03289 0.201255 7.50263 -6.10352e-05 8.03947 -6.10352e-05H19.7158L27.5 7.78415V23.4868C27.5 24.0236 27.2987 24.4934 26.8961 24.896C26.4934 25.2986 26.0237 25.4999 25.4868 25.4999ZM18.7092 8.65652V2.0131H8.03947V23.4868H25.4868V8.65652H18.7092ZM4.01316 29.5263C3.47632 29.5263 3.00658 29.3249 2.60395 28.9223C2.20132 28.5197 2 28.0499 2 27.5131V6.74402H4.01316V27.5131H20.7224V29.5263H4.01316Z" />
<path d="M13.208 6.44002L12.568 11.816H11.4L10.76 6.44002V3.52802H13.208V6.44002ZM13.144 15H10.808V12.744H13.144V15Z" />
<path d="M18.512 11.96C19.136 11.56 19.888 11.368 20.784 11.368C21.968 11.368 22.944 11.656 23.712 12.216C24.496 12.776 24.88 13.608 24.88 14.712C24.88 15.384 24.704 15.96 24.368 16.424C24.176 16.696 23.792 17.064 23.232 17.496L22.672 17.928C22.368 18.168 22.176 18.44 22.08 18.744C22.016 18.952 21.984 19.256 21.984 19.672H19.872C19.904 18.792 19.984 18.184 20.112 17.848C20.256 17.512 20.608 17.128 21.168 16.68L21.728 16.248C21.92 16.104 22.064 15.944 22.192 15.784C22.4 15.496 22.496 15.176 22.496 14.84C22.496 14.44 22.384 14.072 22.16 13.752C21.92 13.432 21.504 13.272 20.88 13.272C20.288 13.272 19.856 13.464 19.6 13.864C19.344 14.264 19.216 14.68 19.216 15.112H16.96C17.024 13.64 17.536 12.584 18.512 11.96ZM22.144 23H19.808V20.744H22.144V23Z" />
</g>
<defs>
<clipPath id="clip0_2448_12">
<rect width="30" height="30" fill="white"/>
</clipPath>
</defs>
</svg>
