<svg width="26" height="26" viewBox="0 0 26 26"  fill="currentColor" xmlns="http://www.w3.org/2000/svg">
<path d="M4.25 26C3.20833 26 2.32292 25.6354 1.59375 24.9062C0.864583 24.1771 0.5 23.2917 0.5 22.25C0.5 21.375 0.765625 20.6042 1.29688 19.9375C1.82812 19.2708 2.5 18.8333 3.3125 18.625V8.375C2.5 8.16667 1.82812 7.72917 1.29688 7.0625C0.765625 6.39583 0.5 5.625 0.5 4.75C0.5 3.70833 0.864583 2.82292 1.59375 2.09375C2.32292 1.36458 3.20833 1 4.25 1C5.125 1 5.89583 1.26562 6.5625 1.79688C7.22917 2.32812 7.66667 3 7.875 3.8125H12.7188L10.7812 1.875C10.5938 1.6875 10.5 1.4671 10.5 1.21381C10.5 0.960521 10.5897 0.741771 10.769 0.557562C10.9647 0.373354 11.1885 0.28125 11.4406 0.28125C11.6927 0.28125 11.9104 0.375 12.0938 0.5625L15.6562 4.09375C15.8438 4.28125 15.9375 4.5 15.9375 4.75C15.9375 5 15.8438 5.21875 15.6562 5.40625L12.0938 8.9375C12.0104 9.02083 11.9115 9.08854 11.7969 9.14062C11.6823 9.19271 11.5625 9.21875 11.4375 9.21875C11.3125 9.21875 11.1979 9.19271 11.0938 9.14062C10.9896 9.08854 10.886 9.01736 10.7831 8.92709C10.5944 8.74653 10.5 8.53125 10.5 8.28125C10.5 8.03125 10.5938 7.8125 10.7812 7.625L12.7188 5.6875H7.875C7.70833 6.35417 7.38542 6.92708 6.90625 7.40625C6.42708 7.88542 5.85417 8.20833 5.1875 8.375V18.625C6 18.8333 6.67188 19.2708 7.20312 19.9375C7.73438 20.6042 8 21.375 8 22.25C8 23.2917 7.63542 24.1771 6.90625 24.9062C6.17708 25.6354 5.29167 26 4.25 26ZM21.75 1C22.7917 1 23.6771 1.36458 24.4062 2.09375C25.1354 2.82292 25.5 3.70833 25.5 4.75C25.5 5.79167 25.1354 6.67708 24.4062 7.40625C23.6771 8.13542 22.7917 8.5 21.75 8.5C20.7083 8.5 19.8229 8.13542 19.0938 7.40625C18.3646 6.67708 18 5.79167 18 4.75C18 3.70833 18.3646 2.82292 19.0938 2.09375C19.8229 1.36458 20.7083 1 21.75 1ZM4.25 24.125C4.78125 24.125 5.22656 23.9453 5.58594 23.5859C5.94531 23.2266 6.125 22.7812 6.125 22.25C6.125 21.7188 5.94531 21.2734 5.58594 20.9141C5.22656 20.5547 4.78125 20.375 4.25 20.375C3.71875 20.375 3.27344 20.5547 2.91406 20.9141C2.55469 21.2734 2.375 21.7188 2.375 22.25C2.375 22.7812 2.55469 23.2266 2.91406 23.5859C3.27344 23.9453 3.71875 24.125 4.25 24.125ZM4.25 6.625C4.78125 6.625 5.22656 6.44531 5.58594 6.08594C5.94531 5.72656 6.125 5.28125 6.125 4.75C6.125 4.21875 5.94531 3.77344 5.58594 3.41406C5.22656 3.05469 4.78125 2.875 4.25 2.875C3.71875 2.875 3.27344 3.05469 2.91406 3.41406C2.55469 3.77344 2.375 4.21875 2.375 4.75C2.375 5.28125 2.55469 5.72656 2.91406 6.08594C3.27344 6.44531 3.71875 6.625 4.25 6.625ZM21.75 6.625C22.2812 6.625 22.7266 6.44531 23.0859 6.08594C23.4453 5.72656 23.625 5.28125 23.625 4.75C23.625 4.21875 23.4453 3.77344 23.0859 3.41406C22.7266 3.05469 22.2812 2.875 21.75 2.875C21.2188 2.875 20.7734 3.05469 20.4141 3.41406C20.0547 3.77344 19.875 4.21875 19.875 4.75C19.875 5.28125 20.0547 5.72656 20.4141 6.08594C20.7734 6.44531 21.2188 6.625 21.75 6.625ZM17.6562 13.5312L19 14.8438L12.375 21.4375V24.125H15.0312L21.6875 17.4688L23 18.7812L16.375 25.4375C16.2083 25.6042 16.0075 25.7396 15.7726 25.8438C15.5376 25.9479 15.2905 26 15.0312 26H11.4375C11.1719 26 10.9492 25.9102 10.7695 25.7305C10.5898 25.5508 10.5 25.3281 10.5 25.0625V21.4688C10.5 21.2095 10.5521 20.9624 10.6562 20.7274C10.7604 20.4925 10.8958 20.2917 11.0625 20.125L17.6562 13.5312ZM23 18.7812L17.6562 13.5312L19.6875 11.5C20.0417 11.1458 20.4824 10.9688 21.0097 10.9688C21.537 10.9688 21.9817 11.1562 22.3438 11.5312L24.9688 14.1875C25.3229 14.5625 25.5 15.0049 25.5 15.5147C25.5 16.0246 25.3125 16.4572 24.9375 16.8125L23 18.7812Z" />
</svg>
