<svg width="29" height="39" viewBox="0 0 29 39" fill="currentColor" xmlns="http://www.w3.org/2000/svg">
<g clip-path="url(#clip0_2448_33)">
<path d="M8.43189 18.9607H5.4993C4.90544 18.9607 4.42402 19.4421 4.42402 20.036V22.9686C4.42402 23.5624 4.90544 24.0438 5.4993 24.0438H8.43189C9.02575 24.0438 9.50717 23.5624 9.50717 22.9686V20.036C9.50717 19.4421 9.02575 18.9607 8.43189 18.9607Z" stroke="currentColor" stroke-width="0.847191" fill="white"/>
<path d="M8.46857 20.1532C8.49113 20.1269 8.49599 20.1035 8.49482 20.0827C8.49341 20.0577 8.48241 20.0312 8.46584 20.0118C8.46118 20.0064 8.45709 20.0026 8.45379 20C8.45146 20.0022 8.44873 20.0051 8.44562 20.0087L6.67664 22.0733L6.48773 22.2938L6.29775 22.0742L5.48463 21.1346C5.48179 21.1313 5.47927 21.1287 5.47709 21.1266C5.47389 21.1292 5.46999 21.1329 5.46556 21.1381C5.44911 21.1574 5.43825 21.1837 5.43691 21.2085C5.43581 21.2291 5.44077 21.2522 5.46306 21.2782M8.46857 20.1532C8.46856 20.1532 8.46858 20.1532 8.46857 20.1532ZM8.46857 20.1532L6.49929 22.4504C6.49369 22.4569 6.48958 22.4592 6.48835 22.4599C6.4871 22.4592 6.48311 22.457 6.47757 22.4506L5.46306 21.2782M5.46306 21.2782C5.46302 21.2782 5.46311 21.2782 5.46306 21.2782Z" stroke="black" stroke-width="0.5" fill="white"/>
<path d="M8.43189 10.4236H5.4993C4.90544 10.4236 4.42402 10.905 4.42402 11.4989V14.4315C4.42402 15.0253 4.90544 15.5067 5.4993 15.5067H8.43189C9.02575 15.5067 9.50717 15.0253 9.50717 14.4315V11.4989C9.50717 10.905 9.02575 10.4236 8.43189 10.4236Z" stroke="currentColor" stroke-width="0.847191" fill="white"/>
<path d="M8.46857 11.8908C8.49113 11.8645 8.49599 11.8411 8.49482 11.8203C8.49341 11.7953 8.48241 11.7688 8.46584 11.7494C8.46118 11.744 8.45709 11.7402 8.45379 11.7376C8.45146 11.7398 8.44873 11.7427 8.44562 11.7463L6.67664 13.8109L6.48773 14.0314L6.29775 13.8118L5.48463 12.8722C5.48179 12.8689 5.47927 12.8663 5.47709 12.8642C5.47389 12.8668 5.46999 12.8705 5.46556 12.8757C5.44911 12.895 5.43825 12.9213 5.43691 12.9461C5.43581 12.9667 5.44077 12.9898 5.46306 13.0158M8.46857 11.8908V11.8908ZM8.46857 11.8908L6.49929 14.188C6.49369 14.1945 6.48835 14.1975 6.48835 14.1975C6.48835 14.1975 6.48311 14.1946 6.47757 14.1882L5.46306 13.0158M5.46306 13.0158V13.0158Z" stroke="black" stroke-width="0.5" fill="white"/>
<path d="M20.4189 11H11.4189C10.8666 11 10.4189 11.4477 10.4189 12C10.4189 12.5523 10.8666 13 11.4189 13H20.4189C20.9712 13 21.4189 12.5523 21.4189 12C21.4189 11.4477 20.9712 11 20.4189 11Z" />
<path d="M15.4189 14H11.4189C10.8666 14 10.4189 14.4477 10.4189 15C10.4189 15.5523 10.8666 16 11.4189 16H15.4189C15.9712 16 16.4189 15.5523 16.4189 15C16.4189 14.4477 15.9712 14 15.4189 14Z" />
<path d="M20.4189 19H11.4189C10.8666 19 10.4189 19.4477 10.4189 20C10.4189 20.5523 10.8666 21 11.4189 21H20.4189C20.9712 21 21.4189 20.5523 21.4189 20C21.4189 19.4477 20.9712 19 20.4189 19Z" />
<path d="M15.4189 22H11.4189C10.8666 22 10.4189 22.4477 10.4189 23C10.4189 23.5523 10.8666 24 11.4189 24H15.4189C15.9712 24 16.4189 23.5523 16.4189 23C16.4189 22.4477 15.9712 22 15.4189 22Z" />
<path d="M11.8154 4.00952H12.0574L12.0652 3.76757L12.0875 3.0777C12.0875 3.07769 12.0875 3.07771 12.0875 3.0777C12.1102 2.37403 12.7754 1.8709 13.4193 1.8709C14.0633 1.8709 14.7285 2.37403 14.7512 3.07768C14.7512 3.07767 14.7512 3.07769 14.7512 3.07768L14.7734 3.76757L14.7812 4.00952H15.0233H15.0256H15.0278H15.03H15.0323H15.0345H15.0367H15.0389H15.0411H15.0432H15.0454H15.0476H15.0497H15.0518H15.054H15.0561H15.0582H15.0603H15.0624H15.0645H15.0665H15.0686H15.0706H15.0727H15.0747H15.0767H15.0787H15.0807H15.0827H15.0847H15.0867H15.0887H15.0906H15.0926H15.0945H15.0965H15.0984H15.1003H15.1022H15.1041H15.106H15.1079H15.1097H15.1116H15.1135H15.1153H15.1171H15.119H15.1208H15.1226H15.1244H15.1262H15.128H15.1298H15.1315H15.1333H15.1351H15.1368H15.1385H15.1403H15.142H15.1437H15.1454H15.1471H15.1488H15.1505H15.1521H15.1538H15.1555H15.1571H15.1588H15.1604H15.162H15.1636H15.1653H15.1669H15.1685H15.17H15.1716H15.1732H15.1748H15.1763H15.1779H15.1794H15.181H15.1825H15.184H15.1855H15.187H15.1885H15.19H15.1915H15.193H15.1945H15.1959H15.1974H15.1989H15.2003H15.2017H15.2032H15.2046H15.206H15.2074H15.2088H15.2102H15.2116H15.213H15.2144H15.2158H15.2171H15.2185H15.2198H15.2212H15.2225H15.2239H15.2252H15.2265H15.2278H15.2291H15.2304H15.2317H15.233H15.2343H15.2356H15.2369H15.2381H15.2394H15.2407H15.2419H15.2432H15.2444H15.2456H15.2469H15.2481H15.2493H15.2505H15.2517H15.2529H15.2541H15.2553H15.2565H15.2577H15.2588H15.26H15.2612H15.2623H15.2635H15.2646H15.2658H15.2669H15.268H15.2692H15.2703H15.2714H15.2725H15.2736H15.2747H15.2758H15.2769H15.278H15.2791H15.2802H15.2812H15.2823H15.2834H15.2855H15.2876H15.2897H15.2917H15.2938H15.2958H15.2978H15.2998H15.3008H15.3028H15.3047H15.3057H15.3076H15.3095H15.3114H15.3133H15.3152H15.317H15.3189H15.3207H15.3225H15.3243H15.3261H15.3279H15.3297H15.3314H15.3332H15.3349H15.3366H15.3384H15.3401H15.3418H15.3434H15.3451H15.3468H15.3484H15.3501H15.3517H15.3533H15.3549H15.3566H15.3582H15.3598H15.3613H15.3629H15.3645H15.3661H15.3676H15.3692H15.3707H15.3723H15.3738H15.3754H15.3769H15.3784H15.38H15.3815H15.383H15.3845H15.386H15.3875H15.389H15.3905H15.3921H15.3936H15.3951H15.3966H15.3981H15.3996H15.4011H15.4026H15.4041H15.4056H15.4071H15.4086H15.4101H15.4116H15.4131H15.4146H15.4161H15.4176H15.4191H15.4207H15.4222H15.4237H15.4253H15.4268H15.4283H15.4299H15.4314H15.433H15.4346H15.4361H15.4377H15.4393H15.4409H15.4425H15.4441H15.4457H15.4473H15.4489H15.4506H15.4522H15.4539H15.4555H15.4572H15.4589H15.4606H15.4623H15.464H15.4657H15.4675H15.4692H15.471H15.4727H15.4745H15.4763H15.4781H15.48H15.4818H15.4836H15.4846H15.4864H15.4874H15.4893H15.4912H15.4931H15.495H15.496H15.498H15.4999H15.5009H15.5029H15.5049H15.507H15.509H15.51H15.5111H15.5121H15.5132H15.5142H15.5153H15.5163H15.5174H15.5184H15.5195H15.5206H15.5217H15.5228H15.5249H15.526H15.5271H15.5282H15.5294H15.5305H15.5316H15.5327H15.5339H15.535H15.5361H15.5373H15.5385H15.5396H15.5408H15.5419H15.5431H15.5443H15.5455H15.5467H15.5479H15.5491H15.5503H15.5515H15.5527H15.5539H15.5552H15.5564H15.5576H15.5589H15.5602H15.5614H15.5627H15.5639H15.5652H15.5665H15.5678H15.5691H15.5704H15.5717H15.573H15.5743H15.5756H15.577H15.5783H15.5797H15.581H15.5824H15.5837H15.5851H15.5865H15.5879H15.5892H15.5906H15.592H15.5935H15.5949H15.5963H15.5977H15.5992H15.6006H15.602H15.6035H15.605H15.6064H15.6079H15.6094H15.6109H18.2834C18.4892 4.00952 18.6819 4.19168 18.6819 4.44938V6.588C18.6819 6.8457 18.4892 7.02787 18.2834 7.02787H8.49044C8.28465 7.02787 8.0919 6.8457 8.0919 6.588V4.44938C8.0919 4.19166 8.28464 4.00952 8.49044 4.00952H11.2278H11.2294H11.2311H11.2327H11.2343H11.2359H11.2375H11.2391H11.2407H11.2423H11.2439H11.2454H11.247H11.2486H11.2501H11.2517H11.2532H11.2547H11.2563H11.2578H11.2593H11.2608H11.2623H11.2638H11.2653H11.2668H11.2683H11.2698H11.2713H11.2727H11.2742H11.2757H11.2771H11.2786H11.28H11.2814H11.2829H11.2843H11.2857H11.2871H11.2885H11.2899H11.2913H11.2927H11.2941H11.2955H11.2969H11.2982H11.2996H11.301H11.3023H11.3037H11.305H11.3063H11.3077H11.309H11.3103H11.3117H11.313H11.3143H11.3156H11.3169H11.3182H11.3195H11.3208H11.3221H11.3233H11.3246H11.3259H11.3271H11.3284H11.3297H11.3309H11.3321H11.3334H11.3346H11.3359H11.3371H11.3383H11.3395H11.3407H11.342H11.3432H11.3444H11.3456H11.3468H11.3479H11.3491H11.3503H11.3515H11.3527H11.3538H11.355H11.3562H11.3573H11.3585H11.3596H11.3608H11.3619H11.363H11.3642H11.3653H11.3664H11.3676H11.3687H11.3698H11.3709H11.372H11.3731H11.3742H11.3753H11.3764H11.3775H11.3786H11.3797H11.3808H11.3829H11.384H11.3851H11.3872H11.3893H11.3914H11.3935H11.3956H11.3976H11.3997H11.4017H11.4027H11.4048H11.4068H11.4088H11.4108H11.4127H11.4137H11.4157H11.4167H11.4186H11.4206H11.4225H11.4244H11.4263H11.4273H11.4292H11.4311H11.4329H11.4348H11.4367H11.4385H11.4404H11.4422H11.4432H11.445H11.4468H11.4486H11.4496H11.4514H11.4532H11.455H11.4568H11.4586H11.4603H11.4621H11.4639H11.4657H11.4674H11.4692H11.4709H11.4727H11.4744H11.4762H11.4779H11.4797H11.4814H11.4832H11.4849H11.4866H11.4883H11.4901H11.4918H11.4935H11.4953H11.497H11.4987H11.5004H11.5021H11.5039H11.5056H11.5073H11.509H11.5108H11.5125H11.5142H11.516H11.5177H11.5194H11.5212H11.5229H11.5246H11.5264H11.5281H11.5299H11.5316H11.5334H11.5351H11.5369H11.5387H11.5404H11.5422H11.544H11.5458H11.5476H11.5494H11.5512H11.553H11.5548H11.5566H11.5585H11.5603H11.5621H11.564H11.5658H11.5668H11.5686H11.5696H11.5715H11.5733H11.5752H11.5771H11.5781H11.58H11.581H11.5829H11.5839H11.5858H11.5878H11.5888H11.5907H11.5927H11.5937H11.5957H11.5977H11.5997H11.6008H11.6018H11.6028H11.6048H11.6059H11.6069H11.609H11.6111H11.6132H11.6153H11.6174H11.6195H11.6206H11.6217H11.6238H11.6249H11.626H11.6271H11.6282H11.6293H11.6304H11.6315H11.6326H11.6337H11.6348H11.636H11.6371H11.6382H11.6393H11.6405H11.6416H11.6428H11.6439H11.6451H11.6462H11.6474H11.6485H11.6497H11.6509H11.652H11.6532H11.6544H11.6556H11.6568H11.658H11.6592H11.6604H11.6616H11.6628H11.664H11.6652H11.6665H11.6677H11.6689H11.6702H11.6714H11.6727H11.6739H11.6752H11.6764H11.6777H11.679H11.6802H11.6815H11.6828H11.6841H11.6854H11.6867H11.688H11.6893H11.6906H11.6919H11.6932H11.6946H11.6959H11.6972H11.6986H11.6999H11.7013H11.7026H11.704H11.7054H11.7067H11.7081H11.7095H11.7109H11.7123H11.7137H11.7151H11.7165H11.7179H11.7193H11.7208H11.7222H11.7236H11.7251H11.7265H11.728H11.7294H11.7309H11.7324H11.7338H11.7353H11.7368H11.7383H11.7398H11.7413H11.7428H11.7443H11.7458H11.7474H11.7489H11.7504H11.752H11.7535H11.7551H11.7567H11.7582H11.7598H11.7614H11.763H11.7646H11.7662H11.7678H11.7694H11.771H11.7726H11.7743H11.7759H11.7775H11.7792H11.7808H11.7825H11.7842H11.7859H11.7875H11.7892H11.7909H11.7926H11.7943H11.7961H11.7978H11.7995H11.8012H11.803H11.8047H11.8065H11.8082H11.81H11.8118H11.8136H11.8154ZM15.8014 2.81963C15.5386 1.64924 14.589 0.75 13.4193 0.75C12.2497 0.75 11.3001 1.64924 11.0373 2.81963H8.49044C7.62169 2.81963 6.94336 3.56408 6.94336 4.44938V6.588C6.94336 7.47331 7.6217 8.21774 8.49044 8.21774H18.2834C19.1522 8.21774 19.8305 7.47331 19.8305 6.588V4.44938C19.8305 3.56409 19.1522 2.81963 18.2834 2.81963H15.8014Z" />
<path d="M12.0875 3.0777L12.0652 3.76757L12.0574 4.00952H11.8154H11.8136H11.8118H11.81H11.8082H11.8065H11.8047H11.803H11.8012H11.7995H11.7978H11.7961H11.7943H11.7926H11.7909H11.7892H11.7875H11.7859H11.7842H11.7825H11.7808H11.7792H11.7775H11.7759H11.7743H11.7726H11.771H11.7694H11.7678H11.7662H11.7646H11.763H11.7614H11.7598H11.7582H11.7567H11.7551H11.7535H11.752H11.7504H11.7489H11.7474H11.7458H11.7443H11.7428H11.7413H11.7398H11.7383H11.7368H11.7353H11.7338H11.7324H11.7309H11.7294H11.728H11.7265H11.7251H11.7236H11.7222H11.7208H11.7193H11.7179H11.7165H11.7151H11.7137H11.7123H11.7109H11.7095H11.7081H11.7067H11.7054H11.704H11.7026H11.7013H11.6999H11.6986H11.6972H11.6959H11.6946H11.6932H11.6919H11.6906H11.6893H11.688H11.6867H11.6854H11.6841H11.6828H11.6815H11.6802H11.679H11.6777H11.6764H11.6752H11.6739H11.6727H11.6714H11.6702H11.6689H11.6677H11.6665H11.6652H11.664H11.6628H11.6616H11.6604H11.6592H11.658H11.6568H11.6556H11.6544H11.6532H11.652H11.6509H11.6497H11.6485H11.6474H11.6462H11.6451H11.6439H11.6428H11.6416H11.6405H11.6393H11.6382H11.6371H11.636H11.6348H11.6337H11.6326H11.6315H11.6304H11.6293H11.6282H11.6271H11.626H11.6249H11.6238H11.6217H11.6206H11.6195H11.6174H11.6153H11.6132H11.6111H11.609H11.6069H11.6059H11.6048H11.6028H11.6018H11.6008H11.5997H11.5977H11.5957H11.5937H11.5927H11.5907H11.5888H11.5878H11.5858H11.5839H11.5829H11.581H11.58H11.5781H11.5771H11.5752H11.5733H11.5715H11.5696H11.5686H11.5668H11.5658H11.564H11.5621H11.5603H11.5585H11.5566H11.5548H11.553H11.5512H11.5494H11.5476H11.5458H11.544H11.5422H11.5404H11.5387H11.5369H11.5351H11.5334H11.5316H11.5299H11.5281H11.5264H11.5246H11.5229H11.5212H11.5194H11.5177H11.516H11.5142H11.5125H11.5108H11.509H11.5073H11.5056H11.5039H11.5021H11.5004H11.4987H11.497H11.4953H11.4935H11.4918H11.4901H11.4883H11.4866H11.4849H11.4832H11.4814H11.4797H11.4779H11.4762H11.4744H11.4727H11.4709H11.4692H11.4674H11.4657H11.4639H11.4621H11.4603H11.4586H11.4568H11.455H11.4532H11.4514H11.4496H11.4486H11.4468H11.445H11.4432H11.4422H11.4404H11.4385H11.4367H11.4348H11.4329H11.4311H11.4292H11.4273H11.4263H11.4244H11.4225H11.4206H11.4186H11.4167H11.4157H11.4137H11.4127H11.4108H11.4088H11.4068H11.4048H11.4027H11.4017H11.3997H11.3976H11.3956H11.3935H11.3914H11.3893H11.3872H11.3851H11.384H11.3829H11.3808H11.3797H11.3786H11.3775H11.3764H11.3753H11.3742H11.3731H11.372H11.3709H11.3698H11.3687H11.3676H11.3664H11.3653H11.3642H11.363H11.3619H11.3608H11.3596H11.3585H11.3573H11.3562H11.355H11.3538H11.3527H11.3515H11.3503H11.3491H11.3479H11.3468H11.3456H11.3444H11.3432H11.342H11.3407H11.3395H11.3383H11.3371H11.3359H11.3346H11.3334H11.3321H11.3309H11.3297H11.3284H11.3271H11.3259H11.3246H11.3233H11.3221H11.3208H11.3195H11.3182H11.3169H11.3156H11.3143H11.313H11.3117H11.3103H11.309H11.3077H11.3063H11.305H11.3037H11.3023H11.301H11.2996H11.2982H11.2969H11.2955H11.2941H11.2927H11.2913H11.2899H11.2885H11.2871H11.2857H11.2843H11.2829H11.2814H11.28H11.2786H11.2771H11.2757H11.2742H11.2727H11.2713H11.2698H11.2683H11.2668H11.2653H11.2638H11.2623H11.2608H11.2593H11.2578H11.2563H11.2547H11.2532H11.2517H11.2501H11.2486H11.247H11.2454H11.2439H11.2423H11.2407H11.2391H11.2375H11.2359H11.2343H11.2327H11.2311H11.2294H11.2278H8.49044C8.28464 4.00952 8.0919 4.19166 8.0919 4.44938V6.588C8.0919 6.8457 8.28465 7.02787 8.49044 7.02787H18.2834C18.4892 7.02787 18.6819 6.8457 18.6819 6.588V4.44938C18.6819 4.19168 18.4892 4.00952 18.2834 4.00952H15.6109H15.6094H15.6079H15.6064H15.605H15.6035H15.602H15.6006H15.5992H15.5977H15.5963H15.5949H15.5935H15.592H15.5906H15.5892H15.5879H15.5865H15.5851H15.5837H15.5824H15.581H15.5797H15.5783H15.577H15.5756H15.5743H15.573H15.5717H15.5704H15.5691H15.5678H15.5665H15.5652H15.5639H15.5627H15.5614H15.5602H15.5589H15.5576H15.5564H15.5552H15.5539H15.5527H15.5515H15.5503H15.5491H15.5479H15.5467H15.5455H15.5443H15.5431H15.5419H15.5408H15.5396H15.5385H15.5373H15.5361H15.535H15.5339H15.5327H15.5316H15.5305H15.5294H15.5282H15.5271H15.526H15.5249H15.5228H15.5217H15.5206H15.5195H15.5184H15.5174H15.5163H15.5153H15.5142H15.5132H15.5121H15.5111H15.51H15.509H15.507H15.5049H15.5029H15.5009H15.4999H15.498H15.496H15.495H15.4931H15.4912H15.4893H15.4874H15.4864H15.4846H15.4836H15.4818H15.48H15.4781H15.4763H15.4745H15.4727H15.471H15.4692H15.4675H15.4657H15.464H15.4623H15.4606H15.4589H15.4572H15.4555H15.4539H15.4522H15.4506H15.4489H15.4473H15.4457H15.4441H15.4425H15.4409H15.4393H15.4377H15.4361H15.4346H15.433H15.4314H15.4299H15.4283H15.4268H15.4253H15.4237H15.4222H15.4207H15.4191H15.4176H15.4161H15.4146H15.4131H15.4116H15.4101H15.4086H15.4071H15.4056H15.4041H15.4026H15.4011H15.3996H15.3981H15.3966H15.3951H15.3936H15.3921H15.3905H15.389H15.3875H15.386H15.3845H15.383H15.3815H15.38H15.3784H15.3769H15.3754H15.3738H15.3723H15.3707H15.3692H15.3676H15.3661H15.3645H15.3629H15.3613H15.3598H15.3582H15.3566H15.3549H15.3533H15.3517H15.3501H15.3484H15.3468H15.3451H15.3434H15.3418H15.3401H15.3384H15.3366H15.3349H15.3332H15.3314H15.3297H15.3279H15.3261H15.3243H15.3225H15.3207H15.3189H15.317H15.3152H15.3133H15.3114H15.3095H15.3076H15.3057H15.3047H15.3028H15.3008H15.2998H15.2978H15.2958H15.2938H15.2917H15.2897H15.2876H15.2855H15.2834H15.2823H15.2812H15.2802H15.2791H15.278H15.2769H15.2758H15.2747H15.2736H15.2725H15.2714H15.2703H15.2692H15.268H15.2669H15.2658H15.2646H15.2635H15.2623H15.2612H15.26H15.2588H15.2577H15.2565H15.2553H15.2541H15.2529H15.2517H15.2505H15.2493H15.2481H15.2469H15.2456H15.2444H15.2432H15.2419H15.2407H15.2394H15.2381H15.2369H15.2356H15.2343H15.233H15.2317H15.2304H15.2291H15.2278H15.2265H15.2252H15.2239H15.2225H15.2212H15.2198H15.2185H15.2171H15.2158H15.2144H15.213H15.2116H15.2102H15.2088H15.2074H15.206H15.2046H15.2032H15.2017H15.2003H15.1989H15.1974H15.1959H15.1945H15.193H15.1915H15.19H15.1885H15.187H15.1855H15.184H15.1825H15.181H15.1794H15.1779H15.1763H15.1748H15.1732H15.1716H15.17H15.1685H15.1669H15.1653H15.1636H15.162H15.1604H15.1588H15.1571H15.1555H15.1538H15.1521H15.1505H15.1488H15.1471H15.1454H15.1437H15.142H15.1403H15.1385H15.1368H15.1351H15.1333H15.1315H15.1298H15.128H15.1262H15.1244H15.1226H15.1208H15.119H15.1171H15.1153H15.1135H15.1116H15.1097H15.1079H15.106H15.1041H15.1022H15.1003H15.0984H15.0965H15.0945H15.0926H15.0906H15.0887H15.0867H15.0847H15.0827H15.0807H15.0787H15.0767H15.0747H15.0727H15.0706H15.0686H15.0665H15.0645H15.0624H15.0603H15.0582H15.0561H15.054H15.0518H15.0497H15.0476H15.0454H15.0432H15.0411H15.0389H15.0367H15.0345H15.0323H15.03H15.0278H15.0256H15.0233H14.7812L14.7734 3.76757L14.7512 3.07768M12.0875 3.0777C12.0875 3.07769 12.0875 3.07771 12.0875 3.0777ZM12.0875 3.0777C12.1102 2.37403 12.7754 1.8709 13.4193 1.8709C14.0633 1.8709 14.7285 2.37403 14.7512 3.07768M14.7512 3.07768C14.7512 3.07769 14.7512 3.07767 14.7512 3.07768ZM15.8014 2.81963C15.5386 1.64924 14.589 0.75 13.4193 0.75C12.2497 0.75 11.3001 1.64924 11.0373 2.81963H8.49044C7.62169 2.81963 6.94336 3.56408 6.94336 4.44938V6.588C6.94336 7.47331 7.6217 8.21774 8.49044 8.21774H18.2834C19.1522 8.21774 19.8305 7.47331 19.8305 6.588V4.44938C19.8305 3.56409 19.1522 2.81963 18.2834 2.81963H15.8014Z" stroke="black" stroke-width="0.5" fill="white"/>
<path fill-rule="evenodd" clip-rule="evenodd" d="M19.4189 3.87097C18.8667 3.87097 18.4189 4.31869 18.4189 4.87097C18.4189 5.42326 18.8667 5.87097 19.4189 5.87097H24V24.3736C24.7109 24.592 25.3821 24.9012 26 25.2876V4.93844C26 4.35608 25.5295 3.87097 24.9331 3.87097H19.4189ZM13.7813 36.0645C13.4904 35.4356 13.274 34.7652 13.1437 34.0645H2V5.90471H7.09205C7.64433 5.90471 8.09205 5.45699 8.09205 4.90471C8.09205 4.35242 7.64433 3.90471 7.09205 3.90471H1.06695C0.470337 3.90471 0 4.39001 0 4.97218V34.997C0 35.579 0.470126 36.0645 1.06695 36.0645H13.7813Z" />
<path d="M19.022 38.6404L18.631 36.1771C18.3833 36.0858 18.1227 35.962 17.8489 35.8056C17.5752 35.6492 17.3341 35.4863 17.1256 35.3169L14.8186 36.3726L13.0004 33.1663L15.1119 31.6218C15.0858 31.5045 15.0695 31.3709 15.063 31.221C15.0565 31.0711 15.0532 30.9375 15.0532 30.8202C15.0532 30.7029 15.0565 30.5693 15.063 30.4194C15.0695 30.2695 15.0858 30.136 15.1119 30.0187L13.0004 28.4742L14.8186 25.2679L17.1256 26.3236C17.3341 26.1542 17.5752 25.9912 17.8489 25.8348C18.1227 25.6784 18.3833 25.5611 18.631 25.4829L19.022 23H22.6193L23.0103 25.4634C23.2579 25.5546 23.5219 25.6752 23.8021 25.8251C24.0823 25.9749 24.3202 26.1411 24.5157 26.3236L26.8227 25.2679L28.6409 28.4742L26.5294 29.9795C26.5555 30.1099 26.5718 30.25 26.5783 30.3999C26.5848 30.5498 26.588 30.6899 26.588 30.8202C26.588 30.9506 26.5848 31.0874 26.5783 31.2308C26.5718 31.3742 26.5555 31.511 26.5294 31.6413L28.6409 33.1663L26.8227 36.3726L24.5157 35.3169C24.3071 35.4863 24.0693 35.6525 23.8021 35.8154C23.5349 35.9783 23.271 36.0989 23.0103 36.1771L22.6193 38.6404H19.022ZM20.8206 33.3618C21.5245 33.3618 22.124 33.1142 22.6193 32.6189C23.1146 32.1236 23.3622 31.524 23.3622 30.8202C23.3622 30.1164 23.1146 29.5169 22.6193 29.0216C22.124 28.5263 21.5245 28.2787 20.8206 28.2787C20.1168 28.2787 19.5173 28.5263 19.022 29.0216C18.5267 29.5169 18.2791 30.1164 18.2791 30.8202C18.2791 31.524 18.5267 32.1236 19.022 32.6189C19.5173 33.1142 20.1168 33.3618 20.8206 33.3618ZM20.8206 32.1888C20.4427 32.1888 20.1201 32.0552 19.8529 31.788C19.5857 31.5208 19.4521 31.1982 19.4521 30.8202C19.4521 30.4422 19.5857 30.1197 19.8529 29.8525C20.1201 29.5853 20.4427 29.4517 20.8206 29.4517C21.1986 29.4517 21.5212 29.5853 21.7884 29.8525C22.0556 30.1197 22.1892 30.4422 22.1892 30.8202C22.1892 31.1982 22.0556 31.5208 21.7884 31.788C21.5212 32.0552 21.1986 32.1888 20.8206 32.1888ZM19.9604 37.4674H21.6809L21.9546 35.2778C22.3847 35.1735 22.792 35.0106 23.1765 34.789C23.561 34.5674 23.9096 34.3002 24.2224 33.9874L26.2948 34.8867L27.0768 33.4791L25.2391 32.1301C25.2912 31.9085 25.3336 31.6902 25.3661 31.4752C25.3987 31.2601 25.415 31.0418 25.415 30.8202C25.415 30.5987 25.402 30.3803 25.3759 30.1653C25.3498 29.9502 25.3042 29.7319 25.2391 29.5103L27.0768 28.1613L26.2948 26.7537L24.2224 27.653C23.9227 27.3142 23.5838 27.0307 23.2058 26.8026C22.8278 26.5745 22.4107 26.4279 21.9546 26.3627L21.6809 24.173H19.9604L19.6867 26.3627C19.2436 26.4539 18.8297 26.6103 18.4452 26.8319C18.0607 27.0535 17.7186 27.3272 17.4188 27.653L15.3465 26.7537L14.5645 28.1613L16.4022 29.5103C16.3501 29.7319 16.3077 29.9502 16.2751 30.1653C16.2425 30.3803 16.2263 30.5987 16.2263 30.8202C16.2263 31.0418 16.2425 31.2601 16.2751 31.4752C16.3077 31.6902 16.3501 31.9085 16.4022 32.1301L14.5645 33.4791L15.3465 34.8867L17.4188 33.9874C17.7316 34.3002 18.0803 34.5674 18.4648 34.789C18.8493 35.0106 19.2566 35.1735 19.6867 35.2778L19.9604 37.4674Z" />
</g>
<defs>
<clipPath id="clip0_2448_33" >
<rect width="29" height="39" />
</clipPath>
</defs>
</svg>
