<svg width="61" height="61" viewBox="0 0 61 61"  fill="currentColor" xmlns="http://www.w3.org/2000/svg">
<path d="M24.542 37V30.9795H21.0508V37H19.6494V29.8809H25.9385V37H24.542ZM32.418 38.7285V36.9902H27.8867V38.7285H26.5977V35.9014H27.2764C27.514 35.5986 27.7158 35.0924 27.8818 34.3828C28.0511 33.6699 28.1569 32.9294 28.1992 32.1611L28.3164 29.8809H32.9697V35.9014H33.7168V38.7285H32.418ZM31.5684 30.9795H29.6689L29.5664 32.4004C29.5176 33.1133 29.4281 33.779 29.2979 34.3975C29.1676 35.0127 29.0114 35.514 28.8291 35.9014H31.5684V30.9795ZM39.6348 38.7285V36.9902H35.1035V38.7285H33.8145V35.9014H34.4932C34.7308 35.5986 34.9326 35.0924 35.0986 34.3828C35.2679 33.6699 35.3737 32.9294 35.416 32.1611L35.5332 29.8809H40.1865V35.9014H40.9336V38.7285H39.6348ZM38.7852 30.9795H36.8857L36.7832 32.4004C36.7344 33.1133 36.6449 33.779 36.5146 34.3975C36.3844 35.0127 36.2282 35.514 36.0459 35.9014H38.7852V30.9795Z" />
<path d="M31.6689 16.7451V19.5127L31.4087 23.2197H30.0122L29.752 19.5127V16.7451H31.6689ZM31.5991 26H29.8218V24.2607H31.5991V26Z" />
<path d="M30.067 3.75C30.2594 3.41667 30.7406 3.41667 30.933 3.75L53.8827 43.5C54.0751 43.8333 53.8346 44.25 53.4497 44.25H7.55033C7.16543 44.25 6.92487 43.8333 7.11731 43.5L30.067 3.75Z" />
</svg>
