<svg width="24" height="20" viewBox="0 0 24 20"  fill="currentColor" xmlns="http://www.w3.org/2000/svg">
<path d="M9.66038 9.02256C8.33208 9.02256 7.24528 8.6015 6.4 7.7594C5.55472 6.91729 5.13208 5.83459 5.13208 4.51128C5.13208 3.18797 5.55472 2.10526 6.4 1.26316C7.24528 0.421053 8.33208 0 9.66038 0C10.9887 0 12.0755 0.421053 12.9208 1.26316C13.766 2.10526 14.1887 3.18797 14.1887 4.51128C14.1887 5.83459 13.766 6.91729 12.9208 7.7594C12.0755 8.6015 10.9887 9.02256 9.66038 9.02256ZM0 18.6767V15.8496C0 15.1479 0.176101 14.5163 0.528302 13.9549C0.880503 13.3935 1.38868 12.9624 2.05283 12.6617C3.50189 12.0201 4.84528 11.5589 6.08302 11.2782C7.32076 10.9975 8.51321 10.8571 9.66038 10.8571H10.3547C10.234 11.1378 10.1434 11.4135 10.083 11.6842C10.0226 11.9549 9.97233 12.2807 9.93208 12.6617H9.66038C8.49308 12.6617 7.35094 12.787 6.23396 13.0376C5.11698 13.2882 3.96478 13.7043 2.77736 14.2857C2.45535 14.4461 2.21384 14.6717 2.05283 14.9624C1.89182 15.2531 1.81132 15.5489 1.81132 15.8496V16.8722H9.93208C10.0327 17.2331 10.1535 17.5589 10.2943 17.8496C10.4352 18.1404 10.6063 18.416 10.8075 18.6767H0ZM17.7208 20L17.4189 18.015C17.0767 17.9148 16.7296 17.7694 16.3774 17.5789C16.0252 17.3885 15.7283 17.1729 15.4868 16.9323L13.8264 17.2932L13.0717 16.0301L14.4906 14.7068C14.4503 14.5263 14.4302 14.2757 14.4302 13.9549C14.4302 13.6341 14.4503 13.3835 14.4906 13.203L13.0717 11.8797L13.8264 10.6165L15.4868 10.9774C15.7283 10.7368 16.0252 10.5213 16.3774 10.3308C16.7296 10.1404 17.0767 9.99499 17.4189 9.89474L17.7208 7.90977H19.3509L19.6528 9.89474C19.995 9.99499 20.3421 10.1404 20.6943 10.3308C21.0465 10.5213 21.3434 10.7368 21.5849 10.9774L23.2453 10.6165L24 11.8797L22.5811 13.203C22.6214 13.3835 22.6415 13.6341 22.6415 13.9549C22.6415 14.2757 22.6214 14.5263 22.5811 14.7068L24 16.0301L23.2453 17.2932L21.5849 16.9323C21.3434 17.1729 21.0465 17.3885 20.6943 17.5789C20.3421 17.7694 19.995 17.9148 19.6528 18.015L19.3509 20H17.7208ZM18.5358 16.3609C19.2604 16.3609 19.844 16.1404 20.2868 15.6992C20.7296 15.2581 20.9509 14.6767 20.9509 13.9549C20.9509 13.2331 20.7296 12.6516 20.2868 12.2105C19.844 11.7694 19.2604 11.5489 18.5358 11.5489C17.8113 11.5489 17.2277 11.7694 16.7849 12.2105C16.3421 12.6516 16.1208 13.2331 16.1208 13.9549C16.1208 14.6767 16.3421 15.2581 16.7849 15.6992C17.2277 16.1404 17.8113 16.3609 18.5358 16.3609ZM9.66038 7.21805C10.4453 7.21805 11.0943 6.96241 11.6075 6.45113C12.1208 5.93985 12.3774 5.29323 12.3774 4.51128C12.3774 3.72932 12.1208 3.08271 11.6075 2.57143C11.0943 2.06015 10.4453 1.80451 9.66038 1.80451C8.87547 1.80451 8.22642 2.06015 7.71321 2.57143C7.2 3.08271 6.9434 3.72932 6.9434 4.51128C6.9434 5.29323 7.2 5.93985 7.71321 6.45113C8.22642 6.96241 8.87547 7.21805 9.66038 7.21805Z" />
</svg>
