<svg width="48" height="36" viewBox="0 0 48 36" fill="currentColor" xmlns="http://www.w3.org/2000/svg">
<path d="M3 36C2.2 36 1.5 35.7 0.9 35.1C0.3 34.5 0 33.8 0 33V3C0 2.2 0.3 1.5 0.9 0.9C1.5 0.3 2.2 0 3 0H45C45.8 0 46.5 0.3 47.1 0.9C47.7 1.5 48 2.2 48 3V33C48 33.8 47.7 34.5 47.1 35.1C46.5 35.7 45.8 36 45 36H3ZM29.55 33H45V3H3V33H3.35C4.81667 30.7 6.69167 28.8833 8.975 27.55C11.2583 26.2167 13.75 25.55 16.45 25.55C19.15 25.55 21.6417 26.2167 23.925 27.55C26.2083 28.8833 28.0833 30.7 29.55 33ZM16.45 22C18.1167 22 19.5333 21.4167 20.7 20.25C21.8667 19.0833 22.45 17.6667 22.45 16C22.45 14.3333 21.8667 12.9167 20.7 11.75C19.5333 10.5833 18.1167 10 16.45 10C14.7833 10 13.3667 10.5833 12.2 11.75C11.0333 12.9167 10.45 14.3333 10.45 16C10.45 17.6667 11.0333 19.0833 12.2 20.25C13.3667 21.4167 14.7833 22 16.45 22ZM7.15 33H25.75C24.5631 31.5908 23.1581 30.4969 21.5348 29.7181C19.9116 28.9394 18.2167 28.55 16.45 28.55C14.6833 28.55 12.9917 28.9417 11.375 29.725C9.75833 30.5083 8.35 31.6 7.15 33ZM16.45 19C15.6 19 14.8875 18.7125 14.3125 18.1375C13.7375 17.5625 13.45 16.85 13.45 16C13.45 15.15 13.7375 14.4375 14.3125 13.8625C14.8875 13.2875 15.6 13 16.45 13C17.3 13 18.0125 13.2875 18.5875 13.8625C19.1625 14.4375 19.45 15.15 19.45 16C19.45 16.85 19.1625 17.5625 18.5875 18.1375C18.0125 18.7125 17.3 19 16.45 19Z" />
<path d="M25.15 10.41H25.17L26.43 4.82H28.63V12H27.25V6H27.23L25.87 12H24.41L23.1 6H23.08V12H21.7V4.82H23.89L25.15 10.41ZM33.4801 10.41H33.5001L34.7601 4.82H36.9601V12H35.5801V6H35.5601L34.2001 12H32.7401L31.4301 6H31.4101V12H30.0301V4.82H32.2201L33.4801 10.41ZM40.0302 7.74L42.7702 4.82H44.7102L41.7802 7.76L44.8802 12H42.9802L40.7602 8.82L40.0302 9.57V12H38.5302V4.82H40.0302V7.74Z" />
</svg>
