<svg width="44" height="33" viewBox="0 0 44 33" fill="currentColor" xmlns="http://www.w3.org/2000/svg">
<path d="M9.2059 32.9C7.56863 32.9 6.175 32.3333 5.025 31.2C3.875 30.0667 3.3 28.6667 3.3 27H3C2.175 27 1.46875 26.7062 0.88125 26.1187C0.29375 25.5312 0 24.825 0 24V3.95C0 3.15 0.3 2.45 0.9 1.85C1.5 1.25 2.2 0.949997 3 0.949997H28.95C29.775 0.949997 30.4813 1.24375 31.0688 1.83125C31.6562 2.41875 31.95 3.125 31.95 3.95V9.3H36.45C36.7 9.3 36.925 9.35 37.125 9.45C37.325 9.55 37.5 9.7 37.65 9.9L43.7 17.95C43.8 18.075 43.875 18.2125 43.925 18.3625C43.975 18.5125 44 18.675 44 18.85V25.5C44 25.925 43.8563 26.2812 43.5688 26.5687C43.2812 26.8562 42.925 27 42.5 27H40.45C40.45 28.6667 39.877 30.0667 38.7309 31.2C37.5848 32.3333 36.1931 32.9 34.5559 32.9C32.9186 32.9 31.525 32.3333 30.375 31.2C29.225 30.0667 28.65 28.6667 28.65 27H15.1C15.1 28.6667 14.527 30.0667 13.3809 31.2C12.2348 32.3333 10.8431 32.9 9.2059 32.9ZM9.2 29.9C10 29.9 10.6833 29.6167 11.25 29.05C11.8167 28.4833 12.1 27.8 12.1 27C12.1 26.2 11.8167 25.5167 11.25 24.95C10.6833 24.3833 10 24.1 9.2 24.1C8.4 24.1 7.71667 24.3833 7.15 24.95C6.58333 25.5167 6.3 26.2 6.3 27C6.3 27.8 6.58333 28.4833 7.15 29.05C7.71667 29.6167 8.4 29.9 9.2 29.9ZM3 3.95V24H4.1C4.66667 23.1 5.38402 22.3833 6.25205 21.85C7.12008 21.3167 8.08675 21.05 9.15205 21.05C10.2174 21.05 11.1917 21.325 12.075 21.875C12.9583 22.425 13.6833 23.1333 14.25 24H28.95V3.95H3ZM34.55 29.9C35.35 29.9 36.0333 29.6167 36.6 29.05C37.1667 28.4833 37.45 27.8 37.45 27C37.45 26.2 37.1667 25.5167 36.6 24.95C36.0333 24.3833 35.35 24.1 34.55 24.1C33.75 24.1 33.0667 24.3833 32.5 24.95C31.9333 25.5167 31.65 26.2 31.65 27C31.65 27.8 31.9333 28.4833 32.5 29.05C33.0667 29.6167 33.75 29.9 34.55 29.9ZM31.95 19.7H41.25L35.7 12.3H31.95V19.7Z"/>
<rect x="8" y="9.95" width="16" height="3" rx="1" />
<rect x="8" y="14.95" width="16" height="3" rx="1" />
</svg>
