<svg width="30" height="31" viewBox="0 0 30 31" fill="currentColor" xmlns="http://www.w3.org/2000/svg">
<path d="M4.57917 18.7874C3.99674 18.7874 3.50098 18.5858 3.09189 18.1826C2.6828 17.7794 2.47826 17.2814 2.47826 16.6885H2.37154C2.07806 16.6885 1.82682 16.584 1.61783 16.375C1.40884 16.1661 1.30434 15.9148 1.30434 15.6213V8.48893C1.30434 8.20435 1.41106 7.95533 1.6245 7.7419C1.83794 7.52846 2.08695 7.42174 2.37154 7.42174H11.6028C11.8962 7.42174 12.1475 7.52623 12.3565 7.73523C12.5655 7.94422 12.67 8.19545 12.67 8.48893V10.3921H14.2707C14.3597 10.3921 14.4397 10.4099 14.5109 10.4455C14.582 10.481 14.6443 10.5344 14.6976 10.6055L16.8498 13.4692C16.8854 13.5136 16.9121 13.5625 16.9298 13.6159C16.9476 13.6693 16.9565 13.7271 16.9565 13.7893V16.1549C16.9565 16.3061 16.9054 16.4329 16.8031 16.5351C16.7008 16.6374 16.5741 16.6885 16.4229 16.6885H15.6937C15.6937 17.2814 15.4898 17.7794 15.0821 18.1826C14.6744 18.5858 14.1794 18.7874 13.597 18.7874C13.0145 18.7874 12.5188 18.5858 12.1097 18.1826C11.7006 17.7794 11.496 17.2814 11.496 16.6885H6.67589C6.67589 17.2814 6.47204 17.7794 6.06435 18.1826C5.65664 18.5858 5.16159 18.7874 4.57917 18.7874ZM4.57707 17.7202C4.86166 17.7202 5.10474 17.6194 5.30632 17.4178C5.5079 17.2162 5.60869 16.9731 5.60869 16.6885C5.60869 16.404 5.5079 16.1609 5.30632 15.9593C5.10474 15.7577 4.86166 15.6569 4.57707 15.6569C4.29249 15.6569 4.0494 15.7577 3.84782 15.9593C3.64624 16.1609 3.54545 16.404 3.54545 16.6885C3.54545 16.9731 3.64624 17.2162 3.84782 17.4178C4.0494 17.6194 4.29249 17.7202 4.57707 17.7202ZM2.37154 8.48893V15.6213H2.76284C2.96442 15.3012 3.21961 15.0462 3.52839 14.8565C3.83718 14.6668 4.18105 14.5719 4.56001 14.5719C4.93897 14.5719 5.28557 14.6698 5.5998 14.8654C5.91403 15.0611 6.17193 15.313 6.37351 15.6213H11.6028V8.48893H2.37154ZM13.5949 17.7202C13.8794 17.7202 14.1225 17.6194 14.3241 17.4178C14.5257 17.2162 14.6265 16.9731 14.6265 16.6885C14.6265 16.404 14.5257 16.1609 14.3241 15.9593C14.1225 15.7577 13.8794 15.6569 13.5949 15.6569C13.3103 15.6569 13.0672 15.7577 12.8656 15.9593C12.664 16.1609 12.5632 16.404 12.5632 16.6885C12.5632 16.9731 12.664 17.2162 12.8656 17.4178C13.0672 17.6194 13.3103 17.7202 13.5949 17.7202ZM12.67 14.0917H15.9783L14.0039 11.4593H12.67V14.0917Z"/>
<path d="M10.9477 22.6256C7.88792 22.6256 5.29837 21.5648 3.17902 19.4431C1.05967 17.3215 0 14.7614 0 11.7628C0 8.76421 1.06082 6.2041 3.18246 4.08245C5.3041 1.96081 7.87129 0.899994 10.884 0.899994C13.8967 0.899994 16.4569 1.96081 18.5644 4.08245C20.6719 6.2041 21.7256 8.76633 21.7256 11.7692C21.7256 12.9813 21.5276 14.1532 21.1315 15.2847C20.7355 16.4163 20.1414 17.4771 19.3494 18.4672L29.6181 28.6511C29.8727 28.8931 30 29.2011 30 29.5752C30 29.9492 29.8727 30.2635 29.6181 30.5181C29.3635 30.7727 29.0492 30.9 28.6752 30.9C28.3011 30.9 27.9931 30.7727 27.7511 30.5181L17.5248 20.2918C16.6761 21.0273 15.6866 21.6001 14.5562 22.0103C13.4258 22.4205 12.223 22.6256 10.9477 22.6256ZM10.9052 20.0796C13.2037 20.0796 15.1574 19.2663 16.7663 17.6397C18.3752 16.0131 19.1796 14.0542 19.1796 11.7628C19.1796 9.47142 18.3752 7.51244 16.7663 5.88585C15.1574 4.25926 13.2037 3.44596 10.9052 3.44596C8.58322 3.44596 6.6095 4.25926 4.98407 5.88585C3.35867 7.51244 2.54597 9.47142 2.54597 11.7628C2.54597 14.0542 3.35867 16.0131 4.98407 17.6397C6.6095 19.2663 8.58322 20.0796 10.9052 20.0796Z"/>
</svg>
