<svg width="25" height="25" viewBox="0 0 25 25"  fill="currentColor" xmlns="http://www.w3.org/2000/svg">
<path d="M7.27679 25C6.88988 25 6.56994 24.8735 6.31697 24.6205C6.06399 24.3676 5.9375 24.0476 5.9375 23.6607V19.0625H1.33929C0.952381 19.0625 0.632441 18.936 0.379464 18.683C0.126488 18.4301 0 18.1101 0 17.7232C0 17.3363 0.126488 17.0164 0.379464 16.7634C0.632441 16.5104 0.952381 16.3839 1.33929 16.3839H7.27679C7.66369 16.3839 7.98363 16.5104 8.23661 16.7634C8.48958 17.0164 8.61607 17.3363 8.61607 17.7232V23.6607C8.61607 24.0476 8.48958 24.3676 8.23661 24.6205C7.98363 24.8735 7.66369 25 7.27679 25ZM1.33929 8.61607C0.952381 8.61607 0.632441 8.48958 0.379464 8.23661C0.126488 7.98363 0 7.66369 0 7.27679C0 6.88988 0.126488 6.56994 0.379464 6.31697C0.632441 6.06399 0.952381 5.9375 1.33929 5.9375H5.9375V1.33929C5.9375 0.952381 6.06399 0.632441 6.31697 0.379464C6.56994 0.126488 6.88988 0 7.27679 0C7.66369 0 7.98363 0.126488 8.23661 0.379464C8.48958 0.632441 8.61607 0.952381 8.61607 1.33929V7.27679C8.61607 7.66369 8.48958 7.98363 8.23661 8.23661C7.98363 8.48958 7.66369 8.61607 7.27679 8.61607H1.33929ZM17.7232 25C17.3363 25 17.0164 24.8735 16.7634 24.6205C16.5104 24.3676 16.3839 24.0476 16.3839 23.6607V17.7232C16.3839 17.3363 16.5104 17.0164 16.7634 16.7634C17.0164 16.5104 17.3363 16.3839 17.7232 16.3839H23.6607C24.0476 16.3839 24.3676 16.5104 24.6205 16.7634C24.8735 17.0164 25 17.3363 25 17.7232C25 18.1101 24.8735 18.4301 24.6205 18.683C24.3676 18.936 24.0476 19.0625 23.6607 19.0625H19.0625V23.6607C19.0625 24.0476 18.936 24.3676 18.683 24.6205C18.4301 24.8735 18.1101 25 17.7232 25ZM17.7232 8.61607C17.3363 8.61607 17.0164 8.48958 16.7634 8.23661C16.5104 7.98363 16.3839 7.66369 16.3839 7.27679V1.33929C16.3839 0.952381 16.5104 0.632441 16.7634 0.379464C17.0164 0.126488 17.3363 0 17.7232 0C18.1101 0 18.4301 0.126488 18.683 0.379464C18.936 0.632441 19.0625 0.952381 19.0625 1.33929V5.9375H23.6607C24.0476 5.9375 24.3676 6.06399 24.6205 6.31697C24.8735 6.56994 25 6.88988 25 7.27679C25 7.66369 24.8735 7.98363 24.6205 8.23661C24.3676 8.48958 24.0476 8.61607 23.6607 8.61607H17.7232Z" />
</svg>
